<svg xmlns="http://www.w3.org/2000/svg"
     xmlns:xlink="http://www.w3.org/1999/xlink" width="311" zoomAndPan="magnify" viewBox="0 0 233.25 51.749998"
     height="69" preserveAspectRatio="xMidYMid meet" version="1.0">
    <path fill="#821238"
          d="M 38.902344 19.511719 L 43.253906 19.234375 C 43.347656 19.945312 43.542969 20.484375 43.832031 20.851562 C 44.300781 21.457031 44.976562 21.75 45.851562 21.75 C 46.507812 21.75 47.011719 21.597656 47.367188 21.289062 C 47.71875 20.980469 47.894531 20.625 47.894531 20.222656 C 47.894531 19.839844 47.726562 19.488281 47.390625 19.1875 C 47.058594 18.886719 46.273438 18.597656 45.050781 18.328125 C 43.039062 17.878906 41.613281 17.277344 40.757812 16.527344 C 39.894531 15.773438 39.464844 14.824219 39.464844 13.660156 C 39.464844 12.898438 39.6875 12.179688 40.128906 11.503906 C 40.570312 10.824219 41.234375 10.289062 42.117188 9.90625 C 43 9.515625 44.21875 9.324219 45.757812 9.324219 C 47.652344 9.324219 49.09375 9.679688 50.082031 10.382812 C 51.074219 11.085938 51.671875 12.207031 51.859375 13.75 L 47.546875 14.003906 C 47.433594 13.332031 47.191406 12.851562 46.824219 12.546875 C 46.453125 12.246094 45.953125 12.09375 45.304688 12.09375 C 44.773438 12.09375 44.371094 12.207031 44.097656 12.433594 C 43.832031 12.664062 43.695312 12.9375 43.695312 13.257812 C 43.695312 13.496094 43.808594 13.707031 44.03125 13.898438 C 44.246094 14.089844 44.761719 14.273438 45.566406 14.441406 C 47.566406 14.871094 49 15.304688 49.863281 15.746094 C 50.726562 16.191406 51.355469 16.742188 51.75 17.390625 C 52.144531 18.046875 52.339844 18.777344 52.339844 19.585938 C 52.339844 20.535156 52.078125 21.414062 51.550781 22.214844 C 51.027344 23.019531 50.292969 23.621094 49.347656 24.039062 C 48.402344 24.453125 47.21875 24.660156 45.777344 24.660156 C 43.261719 24.660156 41.515625 24.179688 40.550781 23.207031 C 39.578125 22.246094 39.03125 21.007812 38.902344 19.511719 Z M 38.902344 19.511719 "
          fill-opacity="1" fillRule="nonzero"/>
    <path fill="#821238"
          d="M 63.660156 21.972656 L 58.464844 21.972656 L 57.742188 24.417969 L 53.070312 24.417969 L 58.632812 9.589844 L 63.621094 9.589844 L 69.183594 24.417969 L 64.390625 24.417969 Z M 62.710938 18.765625 L 61.078125 13.433594 L 59.457031 18.765625 Z M 62.710938 18.765625 "
          fill-opacity="1" fillRule="nonzero"/>
    <path fill="#821238"
          d="M 68.101562 9.585938 L 82.003906 9.585938 L 82.003906 13.246094 L 77.339844 13.246094 L 77.339844 24.417969 L 72.765625 24.417969 L 72.765625 13.246094 L 68.101562 13.246094 Z M 68.101562 9.585938 "
          fill-opacity="1" fillRule="nonzero"/>
    <path fill="#821238"
          d="M 84.015625 9.585938 L 88.585938 9.585938 L 88.585938 14.773438 L 93.589844 14.773438 L 93.589844 9.585938 L 98.179688 9.585938 L 98.179688 24.417969 L 93.589844 24.417969 L 93.589844 18.417969 L 88.585938 18.417969 L 88.585938 24.417969 L 84.015625 24.417969 Z M 84.015625 9.585938 "
          fill-opacity="1" fillRule="nonzero"/>
    <path fill="#821238"
          d="M 99.648438 9.585938 L 104.730469 9.585938 L 107.714844 14.585938 L 110.699219 9.585938 L 115.753906 9.585938 L 109.996094 18.203125 L 109.996094 24.414062 L 105.410156 24.414062 L 105.410156 18.203125 Z M 99.648438 9.585938 "
          fill-opacity="1" fillRule="nonzero"/>
    <path fill="#821238"
          d="M 124.296875 21.972656 L 119.101562 21.972656 L 118.378906 24.417969 L 113.707031 24.417969 L 119.269531 9.589844 L 124.257812 9.589844 L 129.820312 24.417969 L 125.027344 24.417969 Z M 123.347656 18.765625 L 121.714844 13.433594 L 120.09375 18.765625 Z M 123.347656 18.765625 "
          fill-opacity="1" fillRule="nonzero"/>
    <path fill="#821238"
          d="M 131.214844 9.585938 L 139.777344 9.585938 C 141.203125 9.585938 142.300781 9.941406 143.066406 10.644531 C 143.828125 11.355469 144.210938 12.226562 144.210938 13.273438 C 144.210938 14.152344 143.933594 14.902344 143.394531 15.527344 C 143.03125 15.941406 142.496094 16.277344 141.800781 16.519531 C 142.863281 16.773438 143.648438 17.214844 144.148438 17.839844 C 144.652344 18.464844 144.898438 19.25 144.898438 20.195312 C 144.898438 20.964844 144.71875 21.65625 144.363281 22.265625 C 144.007812 22.882812 143.519531 23.367188 142.898438 23.722656 C 142.515625 23.945312 141.933594 24.105469 141.164062 24.203125 C 140.132812 24.339844 139.449219 24.40625 139.113281 24.40625 L 131.214844 24.40625 Z M 135.828125 15.40625 L 137.816406 15.40625 C 138.53125 15.40625 139.027344 15.285156 139.300781 15.035156 C 139.582031 14.789062 139.722656 14.433594 139.722656 13.96875 C 139.722656 13.542969 139.582031 13.199219 139.300781 12.957031 C 139.019531 12.714844 138.539062 12.59375 137.84375 12.59375 L 135.820312 12.59375 L 135.820312 15.40625 Z M 135.828125 21.234375 L 138.15625 21.234375 C 138.949219 21.234375 139.503906 21.09375 139.824219 20.8125 C 140.144531 20.53125 140.304688 20.152344 140.304688 19.683594 C 140.304688 19.25 140.144531 18.894531 139.824219 18.625 C 139.503906 18.355469 138.941406 18.222656 138.144531 18.222656 L 135.820312 18.222656 L 135.820312 21.234375 Z M 135.828125 21.234375 "
          fill-opacity="1" fillRule="nonzero"/>
    <path fill="#821238"
          d="M 155.960938 21.972656 L 150.765625 21.972656 L 150.042969 24.417969 L 145.367188 24.417969 L 150.929688 9.589844 L 155.917969 9.589844 L 161.484375 24.417969 L 156.6875 24.417969 Z M 155.007812 18.765625 L 153.375 13.433594 L 151.753906 18.765625 Z M 155.007812 18.765625 "
          fill-opacity="1" fillRule="nonzero"/>
    <path fill="#821238"
          d="M 162.808594 9.585938 L 168.828125 9.585938 L 171.152344 18.613281 L 173.453125 9.585938 L 179.464844 9.585938 L 179.464844 24.417969 L 175.714844 24.417969 L 175.714844 13.105469 L 172.832031 24.414062 L 169.4375 24.414062 L 166.558594 13.105469 L 166.558594 24.417969 L 162.808594 24.417969 Z M 162.808594 9.585938 "
          fill-opacity="1" fillRule="nonzero"/>
    <path fill="#821238"
          d="M 191.402344 21.972656 L 186.207031 21.972656 L 185.484375 24.417969 L 180.8125 24.417969 L 186.375 9.589844 L 191.363281 9.589844 L 196.925781 24.417969 L 192.132812 24.417969 Z M 190.453125 18.765625 L 188.820312 13.433594 L 187.199219 18.765625 Z M 190.453125 18.765625 "
          fill-opacity="1" fillRule="nonzero"/>
    <path fill="#821238"
          d="M 38.683594 28.941406 L 39.902344 28.941406 L 39.902344 33.546875 L 38.683594 33.546875 Z M 38.683594 28.941406 "
          fill-opacity="1" fillRule="nonzero"/>
    <path fill="#821238"
          d="M 41.535156 28.941406 L 42.671875 28.941406 L 44.160156 31.488281 L 44.160156 28.941406 L 45.308594 28.941406 L 45.308594 33.546875 L 44.160156 33.546875 L 42.679688 31.019531 L 42.679688 33.546875 L 41.535156 33.546875 Z M 41.535156 28.941406 "
          fill-opacity="1" fillRule="nonzero"/>
    <path fill="#821238"
          d="M 46.648438 32.019531 L 47.808594 31.929688 C 47.835938 32.152344 47.882812 32.320312 47.960938 32.433594 C 48.089844 32.621094 48.269531 32.714844 48.496094 32.714844 C 48.671875 32.714844 48.804688 32.667969 48.898438 32.574219 C 48.992188 32.480469 49.039062 32.367188 49.039062 32.246094 C 49.039062 32.125 48.992188 32.019531 48.90625 31.925781 C 48.816406 31.832031 48.609375 31.742188 48.28125 31.65625 C 47.746094 31.515625 47.367188 31.328125 47.136719 31.097656 C 46.910156 30.863281 46.796875 30.570312 46.796875 30.207031 C 46.796875 29.972656 46.855469 29.746094 46.96875 29.535156 C 47.089844 29.328125 47.265625 29.160156 47.5 29.039062 C 47.734375 28.917969 48.0625 28.859375 48.46875 28.859375 C 48.972656 28.859375 49.359375 28.964844 49.621094 29.1875 C 49.890625 29.410156 50.042969 29.757812 50.097656 30.234375 L 48.945312 30.316406 C 48.910156 30.105469 48.851562 29.960938 48.75 29.867188 C 48.652344 29.773438 48.515625 29.726562 48.351562 29.726562 C 48.210938 29.726562 48.101562 29.757812 48.027344 29.832031 C 47.953125 29.898438 47.921875 29.984375 47.921875 30.085938 C 47.921875 30.160156 47.949219 30.226562 48.007812 30.289062 C 48.070312 30.347656 48.203125 30.402344 48.417969 30.457031 C 48.953125 30.589844 49.332031 30.722656 49.5625 30.863281 C 49.789062 31 49.957031 31.171875 50.0625 31.375 C 50.171875 31.574219 50.222656 31.804688 50.222656 32.058594 C 50.222656 32.355469 50.15625 32.628906 50.015625 32.875 C 49.875 33.125 49.683594 33.3125 49.425781 33.445312 C 49.171875 33.574219 48.859375 33.640625 48.476562 33.640625 C 47.808594 33.640625 47.339844 33.492188 47.085938 33.191406 C 46.828125 32.890625 46.683594 32.488281 46.648438 32.019531 Z M 46.648438 32.019531 "
          fill-opacity="1" fillRule="nonzero"/>
    <path fill="#821238"
          d="M 51.316406 28.941406 L 55.019531 28.941406 L 55.019531 30.082031 L 53.773438 30.082031 L 53.773438 33.546875 L 52.554688 33.546875 L 52.554688 30.082031 L 51.308594 30.082031 L 51.308594 28.941406 Z M 51.316406 28.941406 "
          fill-opacity="1" fillRule="nonzero"/>
    <path fill="#821238"
          d="M 56.371094 28.941406 L 57.589844 28.941406 L 57.589844 33.546875 L 56.371094 33.546875 Z M 56.371094 28.941406 "
          fill-opacity="1" fillRule="nonzero"/>
    <path fill="#821238"
          d="M 58.933594 28.941406 L 62.636719 28.941406 L 62.636719 30.082031 L 61.390625 30.082031 L 61.390625 33.546875 L 60.171875 33.546875 L 60.171875 30.082031 L 58.929688 30.082031 L 58.929688 28.941406 Z M 58.933594 28.941406 "
          fill-opacity="1" fillRule="nonzero"/>
    <path fill="#821238"
          d="M 66.507812 28.941406 L 67.726562 28.941406 L 67.726562 31.683594 C 67.726562 31.957031 67.691406 32.210938 67.617188 32.453125 C 67.542969 32.695312 67.429688 32.910156 67.277344 33.089844 C 67.121094 33.273438 66.960938 33.398438 66.789062 33.472656 C 66.554688 33.574219 66.265625 33.628906 65.9375 33.628906 C 65.742188 33.628906 65.535156 33.613281 65.308594 33.582031 C 65.082031 33.546875 64.894531 33.488281 64.738281 33.394531 C 64.585938 33.300781 64.445312 33.164062 64.324219 32.996094 C 64.195312 32.824219 64.109375 32.648438 64.0625 32.46875 C 63.988281 32.171875 63.949219 31.917969 63.949219 31.691406 L 63.949219 28.945312 L 65.167969 28.945312 L 65.167969 31.757812 C 65.167969 32.003906 65.226562 32.207031 65.347656 32.347656 C 65.46875 32.488281 65.636719 32.5625 65.84375 32.5625 C 66.050781 32.5625 66.21875 32.496094 66.339844 32.355469 C 66.460938 32.210938 66.519531 32.019531 66.519531 31.761719 L 66.519531 28.941406 Z M 66.507812 28.941406 "
          fill-opacity="1" fillRule="nonzero"/>
    <path fill="#821238"
          d="M 69.003906 28.941406 L 72.707031 28.941406 L 72.707031 30.082031 L 71.460938 30.082031 L 71.460938 33.546875 L 70.242188 33.546875 L 70.242188 30.082031 L 68.996094 30.082031 L 68.996094 28.941406 Z M 69.003906 28.941406 "
          fill-opacity="1" fillRule="nonzero"/>
    <path fill="#821238"
          d="M 74.003906 28.941406 L 77.273438 28.941406 L 77.273438 29.925781 L 75.230469 29.925781 L 75.230469 30.65625 L 77.125 30.65625 L 77.125 31.597656 L 75.230469 31.597656 L 75.230469 32.5 L 77.332031 32.5 L 77.332031 33.539062 L 74.003906 33.539062 Z M 74.003906 28.941406 "
          fill-opacity="1" fillRule="nonzero"/>
    <path fill="#821238"
          d="M 81.175781 31.246094 C 81.175781 30.496094 81.355469 29.914062 81.710938 29.488281 C 82.074219 29.074219 82.566406 28.859375 83.210938 28.859375 C 83.867188 28.859375 84.375 29.066406 84.730469 29.476562 C 85.085938 29.886719 85.265625 30.460938 85.265625 31.207031 C 85.265625 31.742188 85.1875 32.1875 85.03125 32.527344 C 84.878906 32.871094 84.648438 33.136719 84.363281 33.332031 C 84.066406 33.527344 83.707031 33.621094 83.265625 33.621094 C 82.824219 33.621094 82.453125 33.539062 82.160156 33.375 C 81.863281 33.207031 81.628906 32.945312 81.449219 32.589844 C 81.261719 32.234375 81.175781 31.785156 81.175781 31.246094 Z M 82.394531 31.253906 C 82.394531 31.714844 82.46875 32.050781 82.613281 32.253906 C 82.761719 32.453125 82.964844 32.554688 83.21875 32.554688 C 83.480469 32.554688 83.679688 32.453125 83.828125 32.261719 C 83.96875 32.058594 84.042969 31.703125 84.042969 31.1875 C 84.042969 30.75 83.96875 30.4375 83.8125 30.234375 C 83.667969 30.03125 83.457031 29.933594 83.203125 29.933594 C 82.957031 29.933594 82.761719 30.03125 82.613281 30.234375 C 82.46875 30.449219 82.394531 30.785156 82.394531 31.253906 Z M 82.394531 31.253906 "
          fill-opacity="1" fillRule="nonzero"/>
    <path fill="#821238"
          d="M 86.671875 28.941406 L 89.683594 28.941406 L 89.683594 29.933594 L 87.898438 29.933594 L 87.898438 30.738281 L 89.425781 30.738281 L 89.425781 31.667969 L 87.898438 31.667969 L 87.898438 33.554688 L 86.671875 33.554688 Z M 86.671875 28.941406 "
          fill-opacity="1" fillRule="nonzero"/>
    <path fill="#821238"
          d="M 93.460938 32.019531 L 94.621094 31.929688 C 94.644531 32.152344 94.691406 32.320312 94.773438 32.433594 C 94.902344 32.621094 95.082031 32.714844 95.308594 32.714844 C 95.484375 32.714844 95.617188 32.667969 95.710938 32.574219 C 95.804688 32.480469 95.851562 32.367188 95.851562 32.246094 C 95.851562 32.125 95.804688 32.019531 95.71875 31.925781 C 95.628906 31.832031 95.421875 31.742188 95.09375 31.65625 C 94.558594 31.515625 94.175781 31.328125 93.949219 31.097656 C 93.722656 30.863281 93.609375 30.570312 93.609375 30.207031 C 93.609375 29.972656 93.667969 29.746094 93.78125 29.535156 C 93.902344 29.328125 94.078125 29.160156 94.3125 29.039062 C 94.546875 28.917969 94.875 28.859375 95.28125 28.859375 C 95.785156 28.859375 96.171875 28.964844 96.433594 29.1875 C 96.703125 29.410156 96.855469 29.757812 96.910156 30.234375 L 95.757812 30.316406 C 95.722656 30.105469 95.664062 29.960938 95.5625 29.867188 C 95.460938 29.773438 95.328125 29.726562 95.160156 29.726562 C 95.019531 29.726562 94.914062 29.757812 94.839844 29.832031 C 94.765625 29.898438 94.734375 29.984375 94.734375 30.085938 C 94.734375 30.160156 94.761719 30.226562 94.820312 30.289062 C 94.878906 30.347656 95.015625 30.402344 95.230469 30.457031 C 95.765625 30.589844 96.144531 30.722656 96.375 30.863281 C 96.601562 31 96.769531 31.171875 96.875 31.375 C 96.984375 31.574219 97.035156 31.804688 97.035156 32.058594 C 97.035156 32.355469 96.96875 32.628906 96.828125 32.875 C 96.6875 33.125 96.492188 33.3125 96.238281 33.445312 C 95.984375 33.574219 95.671875 33.640625 95.289062 33.640625 C 94.621094 33.640625 94.152344 33.492188 93.894531 33.191406 C 93.640625 32.871094 93.5 32.488281 93.460938 32.019531 Z M 93.460938 32.019531 "
          fill-opacity="1" fillRule="nonzero"/>
    <path fill="#821238"
          d="M 101.03125 31.65625 L 102.105469 32.03125 C 102.03125 32.378906 101.917969 32.675781 101.761719 32.910156 C 101.609375 33.144531 101.414062 33.320312 101.1875 33.441406 C 100.960938 33.5625 100.664062 33.621094 100.316406 33.621094 C 99.886719 33.621094 99.539062 33.546875 99.265625 33.398438 C 98.992188 33.253906 98.757812 32.996094 98.5625 32.636719 C 98.367188 32.265625 98.269531 31.804688 98.269531 31.226562 C 98.269531 30.460938 98.441406 29.878906 98.789062 29.46875 C 99.136719 29.0625 99.628906 28.851562 100.261719 28.851562 C 100.757812 28.851562 101.152344 28.964844 101.433594 29.203125 C 101.714844 29.4375 101.929688 29.796875 102.070312 30.28125 L 100.992188 30.5625 C 100.953125 30.421875 100.914062 30.320312 100.871094 30.253906 C 100.804688 30.148438 100.71875 30.058594 100.625 30.007812 C 100.523438 29.945312 100.417969 29.917969 100.296875 29.917969 C 100.023438 29.917969 99.808594 30.046875 99.660156 30.308594 C 99.546875 30.503906 99.492188 30.804688 99.492188 31.214844 C 99.492188 31.722656 99.558594 32.070312 99.695312 32.261719 C 99.828125 32.449219 100.015625 32.542969 100.257812 32.542969 C 100.492188 32.542969 100.664062 32.46875 100.785156 32.3125 C 100.890625 32.171875 100.980469 31.953125 101.03125 31.65625 Z M 101.03125 31.65625 "
          fill-opacity="1" fillRule="nonzero"/>
    <path fill="#821238"
          d="M 103.488281 28.941406 L 104.707031 28.941406 L 104.707031 33.546875 L 103.488281 33.546875 Z M 103.488281 28.941406 "
          fill-opacity="1" fillRule="nonzero"/>
    <path fill="#821238"
          d="M 106.328125 28.941406 L 109.597656 28.941406 L 109.597656 29.925781 L 107.554688 29.925781 L 107.554688 30.65625 L 109.449219 30.65625 L 109.449219 31.597656 L 107.554688 31.597656 L 107.554688 32.5 L 109.65625 32.5 L 109.65625 33.539062 L 106.328125 33.539062 Z M 106.328125 28.941406 "
          fill-opacity="1" fillRule="nonzero"/>
    <path fill="#821238"
          d="M 111.070312 28.941406 L 112.207031 28.941406 L 113.695312 31.488281 L 113.695312 28.941406 L 114.84375 28.941406 L 114.84375 33.546875 L 113.695312 33.546875 L 112.214844 31.019531 L 112.214844 33.546875 L 111.070312 33.546875 Z M 111.070312 28.941406 "
          fill-opacity="1" fillRule="nonzero"/>
    <path fill="#821238"
          d="M 119.03125 31.65625 L 120.101562 32.03125 C 120.027344 32.378906 119.914062 32.675781 119.757812 32.910156 C 119.605469 33.144531 119.410156 33.320312 119.183594 33.441406 C 118.957031 33.5625 118.660156 33.621094 118.3125 33.621094 C 117.882812 33.621094 117.535156 33.546875 117.261719 33.398438 C 116.988281 33.253906 116.753906 32.996094 116.558594 32.636719 C 116.363281 32.265625 116.265625 31.804688 116.265625 31.226562 C 116.265625 30.460938 116.4375 29.878906 116.785156 29.46875 C 117.136719 29.0625 117.625 28.851562 118.257812 28.851562 C 118.753906 28.851562 119.148438 28.964844 119.429688 29.203125 C 119.710938 29.4375 119.925781 29.796875 120.066406 30.28125 L 118.988281 30.5625 C 118.949219 30.421875 118.910156 30.320312 118.867188 30.253906 C 118.800781 30.148438 118.714844 30.058594 118.621094 30.007812 C 118.519531 29.945312 118.414062 29.917969 118.292969 29.917969 C 118.019531 29.917969 117.804688 30.046875 117.65625 30.308594 C 117.542969 30.503906 117.488281 30.804688 117.488281 31.214844 C 117.488281 31.722656 117.554688 32.070312 117.691406 32.261719 C 117.824219 32.449219 118.011719 32.542969 118.253906 32.542969 C 118.488281 32.542969 118.660156 32.46875 118.78125 32.3125 C 118.890625 32.171875 118.976562 31.953125 119.03125 31.65625 Z M 119.03125 31.65625 "
          fill-opacity="1" fillRule="nonzero"/>
    <path fill="#821238"
          d="M 121.433594 28.941406 L 124.699219 28.941406 L 124.699219 29.925781 L 122.660156 29.925781 L 122.660156 30.65625 L 124.554688 30.65625 L 124.554688 31.597656 L 122.660156 31.597656 L 122.660156 32.5 L 124.761719 32.5 L 124.761719 33.539062 L 121.433594 33.539062 Z M 121.433594 28.941406 "
          fill-opacity="1" fillRule="nonzero"/>
    <path fill="#821238"
          d="M 131.175781 32.78125 L 129.789062 32.78125 L 129.59375 33.539062 L 128.347656 33.539062 L 129.828125 28.933594 L 131.160156 28.933594 L 132.640625 33.539062 L 131.363281 33.539062 Z M 130.925781 31.789062 L 130.492188 30.132812 L 130.0625 31.789062 Z M 130.925781 31.789062 "
          fill-opacity="1" fillRule="nonzero"/>
    <path fill="#821238"
          d="M 133.792969 28.941406 L 134.929688 28.941406 L 136.417969 31.488281 L 136.417969 28.941406 L 137.566406 28.941406 L 137.566406 33.546875 L 136.417969 33.546875 L 134.9375 31.019531 L 134.9375 33.546875 L 133.792969 33.546875 Z M 133.792969 28.941406 "
          fill-opacity="1" fillRule="nonzero"/>
    <path fill="#821238"
          d="M 139.140625 28.941406 L 140.949219 28.941406 C 141.304688 28.941406 141.59375 28.992188 141.8125 29.109375 C 142.035156 29.222656 142.214844 29.382812 142.355469 29.597656 C 142.496094 29.8125 142.601562 30.054688 142.667969 30.335938 C 142.738281 30.617188 142.761719 30.910156 142.761719 31.226562 C 142.761719 31.714844 142.714844 32.097656 142.621094 32.375 C 142.527344 32.640625 142.394531 32.871094 142.222656 33.058594 C 142.054688 33.238281 141.867188 33.367188 141.671875 33.425781 C 141.40625 33.507812 141.164062 33.554688 140.949219 33.554688 L 139.140625 33.554688 Z M 140.359375 29.980469 L 140.359375 32.496094 L 140.660156 32.496094 C 140.914062 32.496094 141.097656 32.460938 141.203125 32.394531 C 141.3125 32.328125 141.398438 32.210938 141.457031 32.046875 C 141.519531 31.882812 141.550781 31.617188 141.550781 31.246094 C 141.550781 30.757812 141.484375 30.421875 141.34375 30.246094 C 141.210938 30.066406 140.984375 29.980469 140.667969 29.980469 Z M 140.359375 29.980469 "
          fill-opacity="1" fillRule="nonzero"/>
    <path fill="#821238"
          d="M 146.472656 28.941406 L 150.175781 28.941406 L 150.175781 30.082031 L 148.9375 30.082031 L 148.9375 33.546875 L 147.71875 33.546875 L 147.71875 30.082031 L 146.472656 30.082031 Z M 146.472656 28.941406 "
          fill-opacity="1" fillRule="nonzero"/>
    <path fill="#821238"
          d="M 151.472656 28.941406 L 154.742188 28.941406 L 154.742188 29.925781 L 152.699219 29.925781 L 152.699219 30.65625 L 154.59375 30.65625 L 154.59375 31.597656 L 152.699219 31.597656 L 152.699219 32.5 L 154.800781 32.5 L 154.800781 33.539062 L 151.472656 33.539062 Z M 151.472656 28.941406 "
          fill-opacity="1" fillRule="nonzero"/>
    <path fill="#821238"
          d="M 158.832031 31.65625 L 159.902344 32.03125 C 159.828125 32.378906 159.714844 32.675781 159.5625 32.910156 C 159.40625 33.144531 159.214844 33.320312 158.984375 33.441406 C 158.757812 33.5625 158.464844 33.621094 158.117188 33.621094 C 157.6875 33.621094 157.339844 33.546875 157.0625 33.398438 C 156.789062 33.253906 156.554688 32.996094 156.359375 32.636719 C 156.167969 32.265625 156.066406 31.804688 156.066406 31.226562 C 156.066406 30.460938 156.242188 29.878906 156.589844 29.46875 C 156.9375 29.0625 157.425781 28.851562 158.0625 28.851562 C 158.558594 28.851562 158.953125 28.964844 159.234375 29.203125 C 159.515625 29.4375 159.730469 29.796875 159.871094 30.28125 L 158.792969 30.5625 C 158.75 30.421875 158.710938 30.320312 158.671875 30.253906 C 158.605469 30.148438 158.515625 30.058594 158.421875 30.007812 C 158.324219 29.945312 158.214844 29.917969 158.09375 29.917969 C 157.820312 29.917969 157.605469 30.046875 157.460938 30.308594 C 157.34375 30.503906 157.292969 30.804688 157.292969 31.214844 C 157.292969 31.722656 157.359375 32.070312 157.492188 32.261719 C 157.625 32.449219 157.8125 32.542969 158.054688 32.542969 C 158.289062 32.542969 158.464844 32.46875 158.582031 32.3125 C 158.691406 32.171875 158.777344 31.953125 158.832031 31.65625 Z M 158.832031 31.65625 "
          fill-opacity="1" fillRule="nonzero"/>
    <path fill="#821238"
          d="M 161.25 28.941406 L 162.46875 28.941406 L 162.46875 30.550781 L 163.800781 30.550781 L 163.800781 28.941406 L 165.023438 28.941406 L 165.023438 33.546875 L 163.800781 33.546875 L 163.800781 31.683594 L 162.46875 31.683594 L 162.46875 33.546875 L 161.25 33.546875 Z M 161.25 28.941406 "
          fill-opacity="1" fillRule="nonzero"/>
    <path fill="#821238"
          d="M 166.589844 28.941406 L 167.730469 28.941406 L 169.214844 31.488281 L 169.214844 28.941406 L 170.359375 28.941406 L 170.359375 33.546875 L 169.210938 33.546875 L 167.730469 31.019531 L 167.730469 33.546875 L 166.585938 33.546875 L 166.585938 28.941406 Z M 166.589844 28.941406 "
          fill-opacity="1" fillRule="nonzero"/>
    <path fill="#821238"
          d="M 171.765625 31.246094 C 171.765625 30.496094 171.949219 29.914062 172.300781 29.488281 C 172.664062 29.074219 173.160156 28.859375 173.800781 28.859375 C 174.457031 28.859375 174.964844 29.066406 175.320312 29.476562 C 175.675781 29.886719 175.855469 30.460938 175.855469 31.207031 C 175.855469 31.742188 175.777344 32.1875 175.621094 32.527344 C 175.46875 32.871094 175.242188 33.136719 174.953125 33.332031 C 174.660156 33.527344 174.296875 33.621094 173.855469 33.621094 C 173.414062 33.621094 173.046875 33.539062 172.75 33.375 C 172.457031 33.207031 172.222656 32.945312 172.039062 32.589844 C 171.855469 32.234375 171.765625 31.785156 171.765625 31.246094 Z M 172.984375 31.253906 C 172.984375 31.714844 173.058594 32.050781 173.207031 32.253906 C 173.351562 32.453125 173.554688 32.554688 173.808594 32.554688 C 174.070312 32.554688 174.269531 32.453125 174.417969 32.261719 C 174.558594 32.058594 174.632812 31.703125 174.632812 31.1875 C 174.632812 30.75 174.558594 30.4375 174.40625 30.234375 C 174.257812 30.03125 174.050781 29.933594 173.796875 29.933594 C 173.546875 29.933594 173.351562 30.03125 173.207031 30.234375 C 173.058594 30.449219 172.984375 30.785156 172.984375 31.253906 Z M 172.984375 31.253906 "
          fill-opacity="1" fillRule="nonzero"/>
    <path fill="#821238"
          d="M 177.257812 28.941406 L 178.476562 28.941406 L 178.476562 32.414062 L 180.375 32.414062 L 180.375 33.546875 L 177.257812 33.546875 Z M 177.257812 28.941406 "
          fill-opacity="1" fillRule="nonzero"/>
    <path fill="#821238"
          d="M 181.433594 31.246094 C 181.433594 30.496094 181.613281 29.914062 181.96875 29.488281 C 182.332031 29.074219 182.828125 28.859375 183.46875 28.859375 C 184.125 28.859375 184.632812 29.066406 184.988281 29.476562 C 185.34375 29.886719 185.523438 30.460938 185.523438 31.207031 C 185.523438 31.742188 185.445312 32.1875 185.289062 32.527344 C 185.136719 32.871094 184.910156 33.136719 184.621094 33.332031 C 184.328125 33.527344 183.964844 33.621094 183.523438 33.621094 C 183.082031 33.621094 182.714844 33.539062 182.417969 33.375 C 182.125 33.207031 181.890625 32.945312 181.707031 32.589844 C 181.527344 32.234375 181.433594 31.785156 181.433594 31.246094 Z M 182.652344 31.253906 C 182.652344 31.714844 182.726562 32.050781 182.875 32.253906 C 183.019531 32.453125 183.222656 32.554688 183.476562 32.554688 C 183.738281 32.554688 183.9375 32.453125 184.085938 32.261719 C 184.226562 32.058594 184.300781 31.703125 184.300781 31.1875 C 184.300781 30.75 184.226562 30.4375 184.070312 30.234375 C 183.925781 30.03125 183.71875 29.933594 183.460938 29.933594 C 183.214844 29.933594 183.019531 30.03125 182.875 30.234375 C 182.726562 30.449219 182.652344 30.785156 182.652344 31.253906 Z M 182.652344 31.253906 "
          fill-opacity="1" fillRule="nonzero"/>
    <path fill="#821238"
          d="M 188.914062 31.878906 L 188.914062 30.917969 L 190.792969 30.917969 L 190.792969 32.882812 C 190.433594 33.171875 190.117188 33.367188 189.835938 33.46875 C 189.5625 33.566406 189.234375 33.621094 188.851562 33.621094 C 188.382812 33.621094 188.003906 33.527344 187.707031 33.339844 C 187.414062 33.152344 187.183594 32.875 187.023438 32.507812 C 186.863281 32.140625 186.785156 31.714844 186.785156 31.242188 C 186.785156 30.738281 186.871094 30.300781 187.050781 29.925781 C 187.230469 29.558594 187.488281 29.273438 187.835938 29.082031 C 188.101562 28.933594 188.464844 28.859375 188.914062 28.859375 C 189.347656 28.859375 189.675781 28.90625 189.890625 29 C 190.105469 29.09375 190.285156 29.234375 190.425781 29.429688 C 190.566406 29.625 190.671875 29.871094 190.746094 30.167969 L 189.570312 30.414062 C 189.523438 30.242188 189.441406 30.105469 189.320312 30.019531 C 189.207031 29.925781 189.058594 29.878906 188.878906 29.878906 C 188.609375 29.878906 188.398438 29.984375 188.242188 30.199219 C 188.082031 30.414062 188.003906 30.757812 188.003906 31.226562 C 188.003906 31.722656 188.082031 32.078125 188.242188 32.292969 C 188.402344 32.507812 188.625 32.617188 188.914062 32.617188 C 189.046875 32.617188 189.179688 32.59375 189.300781 32.546875 C 189.421875 32.5 189.570312 32.421875 189.730469 32.3125 L 189.730469 31.878906 Z M 188.914062 31.878906 "
          fill-opacity="1" fillRule="nonzero"/>
    <path fill="#821238"
          d="M 191.871094 28.941406 L 193.222656 28.941406 L 194.019531 30.496094 L 194.816406 28.941406 L 196.164062 28.941406 L 194.628906 31.617188 L 194.628906 33.546875 L 193.410156 33.546875 L 193.410156 31.617188 Z M 191.871094 28.941406 "
          fill-opacity="1" fillRule="nonzero"/>
    <path fill="#821238"
          d="M 68.6875 35.957031 L 69.320312 35.957031 C 69.105469 36.429688 68.949219 36.875 68.851562 37.277344 C 68.769531 37.617188 68.730469 37.988281 68.730469 38.375 C 68.730469 39.128906 68.921875 39.90625 69.320312 40.695312 L 68.6875 40.695312 C 68.367188 40.242188 68.148438 39.832031 68.019531 39.46875 C 67.890625 39.101562 67.824219 38.71875 67.824219 38.316406 C 67.824219 37.898438 67.890625 37.503906 68.027344 37.128906 C 68.160156 36.761719 68.382812 36.363281 68.6875 35.957031 Z M 68.6875 35.957031 "
          fill-opacity="1" fillRule="nonzero"/>
    <path fill="#821238"
          d="M 70.585938 36.015625 L 72.246094 36.015625 C 72.574219 36.015625 72.832031 36.0625 73.035156 36.148438 C 73.234375 36.238281 73.402344 36.363281 73.535156 36.53125 C 73.671875 36.699219 73.765625 36.894531 73.824219 37.117188 C 73.882812 37.335938 73.910156 37.570312 73.910156 37.820312 C 73.910156 38.207031 73.863281 38.503906 73.777344 38.71875 C 73.691406 38.933594 73.570312 39.105469 73.410156 39.253906 C 73.253906 39.394531 73.089844 39.496094 72.90625 39.542969 C 72.660156 39.609375 72.4375 39.644531 72.246094 39.644531 L 70.585938 39.644531 Z M 71.703125 36.839844 L 71.703125 38.820312 L 71.976562 38.820312 C 72.210938 38.820312 72.378906 38.792969 72.472656 38.738281 C 72.574219 38.683594 72.644531 38.597656 72.707031 38.464844 C 72.761719 38.335938 72.792969 38.121094 72.792969 37.832031 C 72.792969 37.449219 72.734375 37.1875 72.605469 37.046875 C 72.480469 36.90625 72.269531 36.832031 71.984375 36.832031 L 71.703125 36.832031 Z M 71.703125 36.839844 "
          fill-opacity="1" fillRule="nonzero"/>
    <path fill="#821238"
          d="M 75.175781 36.015625 L 78.167969 36.015625 L 78.167969 36.785156 L 76.292969 36.785156 L 76.292969 37.363281 L 78.035156 37.363281 L 78.035156 38.101562 L 76.292969 38.101562 L 76.292969 38.8125 L 78.222656 38.8125 L 78.222656 39.628906 L 75.175781 39.628906 Z M 75.175781 36.015625 "
          fill-opacity="1" fillRule="nonzero"/>
    <path fill="#821238"
          d="M 79.515625 36.015625 L 82.507812 36.015625 L 82.507812 36.785156 L 80.632812 36.785156 L 80.632812 37.363281 L 82.375 37.363281 L 82.375 38.101562 L 80.632812 38.101562 L 80.632812 38.8125 L 82.5625 38.8125 L 82.5625 39.628906 L 79.515625 39.628906 Z M 79.515625 36.015625 "
          fill-opacity="1" fillRule="nonzero"/>
    <path fill="#821238"
          d="M 83.839844 36.015625 L 85.304688 36.015625 L 85.875 38.214844 L 86.4375 36.015625 L 87.902344 36.015625 L 87.902344 39.636719 L 86.988281 39.636719 L 86.988281 36.875 L 86.285156 39.636719 L 85.453125 39.636719 L 84.75 36.875 L 84.75 39.636719 L 83.832031 39.636719 L 83.832031 36.015625 Z M 83.839844 36.015625 "
          fill-opacity="1" fillRule="nonzero"/>
    <path fill="#821238"
          d="M 89.296875 36.015625 L 92.289062 36.015625 L 92.289062 36.785156 L 90.414062 36.785156 L 90.414062 37.363281 L 92.15625 37.363281 L 92.15625 38.101562 L 90.414062 38.101562 L 90.414062 38.8125 L 92.34375 38.8125 L 92.34375 39.628906 L 89.296875 39.628906 Z M 89.296875 36.015625 "
          fill-opacity="1" fillRule="nonzero"/>
    <path fill="#821238"
          d="M 93.648438 36.015625 L 95.308594 36.015625 C 95.636719 36.015625 95.898438 36.0625 96.097656 36.148438 C 96.300781 36.238281 96.46875 36.363281 96.601562 36.53125 C 96.734375 36.699219 96.828125 36.894531 96.890625 37.117188 C 96.949219 37.335938 96.976562 37.570312 96.976562 37.820312 C 96.976562 38.207031 96.929688 38.503906 96.84375 38.71875 C 96.753906 38.933594 96.632812 39.105469 96.472656 39.253906 C 96.320312 39.394531 96.152344 39.496094 95.972656 39.542969 C 95.722656 39.609375 95.503906 39.644531 95.308594 39.644531 L 93.648438 39.644531 Z M 94.765625 36.839844 L 94.765625 38.820312 L 95.042969 38.820312 C 95.273438 38.820312 95.441406 38.792969 95.535156 38.738281 C 95.636719 38.683594 95.710938 38.597656 95.769531 38.464844 C 95.824219 38.335938 95.859375 38.121094 95.859375 37.832031 C 95.859375 37.449219 95.796875 37.1875 95.671875 37.046875 C 95.542969 36.90625 95.335938 36.832031 95.046875 36.832031 L 94.765625 36.832031 Z M 94.765625 36.839844 "
          fill-opacity="1" fillRule="nonzero"/>
    <path fill="#821238"
          d="M 100.363281 36.015625 L 103.757812 36.015625 L 103.757812 36.90625 L 102.621094 36.90625 L 102.621094 39.636719 L 101.5 39.636719 L 101.5 36.90625 L 100.363281 36.90625 Z M 100.363281 36.015625 "
          fill-opacity="1" fillRule="nonzero"/>
    <path fill="#821238"
          d="M 104.640625 37.832031 C 104.640625 37.242188 104.808594 36.78125 105.136719 36.453125 C 105.464844 36.121094 105.921875 35.957031 106.507812 35.957031 C 107.113281 35.957031 107.574219 36.117188 107.902344 36.4375 C 108.230469 36.761719 108.390625 37.214844 108.390625 37.800781 C 108.390625 38.222656 108.316406 38.570312 108.175781 38.839844 C 108.035156 39.105469 107.828125 39.320312 107.5625 39.46875 C 107.292969 39.617188 106.957031 39.699219 106.554688 39.699219 C 106.148438 39.699219 105.8125 39.628906 105.546875 39.503906 C 105.277344 39.375 105.0625 39.167969 104.894531 38.886719 C 104.722656 38.605469 104.640625 38.253906 104.640625 37.832031 Z M 105.761719 37.832031 C 105.761719 38.203125 105.828125 38.464844 105.960938 38.617188 C 106.09375 38.777344 106.28125 38.859375 106.515625 38.859375 C 106.757812 38.859375 106.945312 38.777344 107.070312 38.625 C 107.207031 38.46875 107.265625 38.1875 107.265625 37.78125 C 107.265625 37.4375 107.199219 37.1875 107.058594 37.035156 C 106.917969 36.878906 106.738281 36.800781 106.503906 36.800781 C 106.273438 36.800781 106.09375 36.878906 105.960938 37.042969 C 105.828125 37.203125 105.761719 37.464844 105.761719 37.832031 Z M 105.761719 37.832031 "
          fill-opacity="1" fillRule="nonzero"/>
    <path fill="#821238"
          d="M 112.046875 36.015625 L 114.136719 36.015625 C 114.484375 36.015625 114.75 36.101562 114.9375 36.277344 C 115.125 36.453125 115.21875 36.667969 115.21875 36.921875 C 115.21875 37.136719 115.152344 37.316406 115.019531 37.472656 C 114.933594 37.570312 114.796875 37.652344 114.628906 37.710938 C 114.890625 37.773438 115.078125 37.878906 115.207031 38.035156 C 115.328125 38.1875 115.386719 38.375 115.386719 38.609375 C 115.386719 38.800781 115.339844 38.964844 115.253906 39.121094 C 115.167969 39.269531 115.046875 39.390625 114.898438 39.476562 C 114.804688 39.53125 114.664062 39.570312 114.476562 39.597656 C 114.222656 39.628906 114.0625 39.644531 113.976562 39.644531 L 112.046875 39.644531 Z M 113.179688 37.4375 L 113.667969 37.4375 C 113.839844 37.4375 113.960938 37.410156 114.027344 37.351562 C 114.09375 37.289062 114.128906 37.203125 114.128906 37.089844 C 114.128906 36.980469 114.09375 36.902344 114.027344 36.839844 C 113.960938 36.78125 113.839844 36.753906 113.671875 36.753906 L 113.179688 36.753906 Z M 113.179688 38.859375 L 113.746094 38.859375 C 113.941406 38.859375 114.074219 38.824219 114.15625 38.757812 C 114.234375 38.691406 114.277344 38.597656 114.277344 38.484375 C 114.277344 38.375 114.234375 38.289062 114.15625 38.230469 C 114.074219 38.160156 113.941406 38.128906 113.746094 38.128906 L 113.179688 38.128906 Z M 113.179688 38.859375 "
          fill-opacity="1" fillRule="nonzero"/>
    <path fill="#821238"
          d="M 116.660156 36.015625 L 119.652344 36.015625 L 119.652344 36.785156 L 117.777344 36.785156 L 117.777344 37.363281 L 119.519531 37.363281 L 119.519531 38.101562 L 117.777344 38.101562 L 117.777344 38.8125 L 119.707031 38.8125 L 119.707031 39.628906 L 116.660156 39.628906 Z M 116.660156 36.015625 "
          fill-opacity="1" fillRule="nonzero"/>
    <path fill="#821238"
          d="M 125.71875 36.015625 L 126.828125 36.015625 L 126.828125 38.175781 C 126.828125 38.390625 126.796875 38.589844 126.730469 38.777344 C 126.660156 38.964844 126.554688 39.132812 126.414062 39.273438 C 126.273438 39.414062 126.121094 39.515625 125.964844 39.578125 C 125.75 39.65625 125.488281 39.699219 125.183594 39.699219 C 125.007812 39.699219 124.8125 39.683594 124.605469 39.65625 C 124.398438 39.628906 124.226562 39.582031 124.085938 39.511719 C 123.945312 39.4375 123.816406 39.335938 123.703125 39.195312 C 123.589844 39.058594 123.507812 38.917969 123.460938 38.777344 C 123.394531 38.550781 123.359375 38.34375 123.359375 38.167969 L 123.359375 36.007812 L 124.472656 36.007812 L 124.472656 38.214844 C 124.472656 38.410156 124.527344 38.5625 124.632812 38.679688 C 124.742188 38.792969 124.894531 38.847656 125.089844 38.847656 C 125.28125 38.847656 125.429688 38.792969 125.542969 38.683594 C 125.652344 38.578125 125.703125 38.421875 125.703125 38.222656 L 125.703125 36.015625 Z M 125.71875 36.015625 "
          fill-opacity="1" fillRule="nonzero"/>
    <path fill="#821238"
          d="M 128.261719 36.015625 L 129.304688 36.015625 L 130.664062 38.019531 L 130.664062 36.015625 L 131.714844 36.015625 L 131.714844 39.636719 L 130.664062 39.636719 L 129.3125 37.652344 L 129.3125 39.636719 L 128.261719 39.636719 Z M 128.261719 36.015625 "
          fill-opacity="1" fillRule="nonzero"/>
    <path fill="#821238"
          d="M 133.195312 36.015625 L 134.3125 36.015625 L 134.3125 39.636719 L 133.195312 39.636719 Z M 133.195312 36.015625 "
          fill-opacity="1" fillRule="nonzero"/>
    <path fill="#821238"
          d="M 135.445312 36.015625 L 136.609375 36.015625 L 137.425781 38.625 L 138.230469 36.015625 L 139.363281 36.015625 L 138.023438 39.636719 L 136.8125 39.636719 Z M 135.445312 36.015625 "
          fill-opacity="1" fillRule="nonzero"/>
    <path fill="#821238"
          d="M 140.414062 36.015625 L 143.40625 36.015625 L 143.40625 36.785156 L 141.53125 36.785156 L 141.53125 37.363281 L 143.273438 37.363281 L 143.273438 38.101562 L 141.53125 38.101562 L 141.53125 38.8125 L 143.460938 38.8125 L 143.460938 39.628906 L 140.414062 39.628906 Z M 140.414062 36.015625 "
          fill-opacity="1" fillRule="nonzero"/>
    <path fill="#821238"
          d="M 144.765625 39.636719 L 144.765625 36.015625 L 146.625 36.015625 C 146.976562 36.015625 147.234375 36.042969 147.417969 36.101562 C 147.597656 36.164062 147.746094 36.269531 147.859375 36.429688 C 147.972656 36.59375 148.027344 36.785156 148.027344 37.015625 C 148.027344 37.214844 147.984375 37.390625 147.898438 37.539062 C 147.8125 37.683594 147.699219 37.800781 147.542969 37.894531 C 147.449219 37.953125 147.316406 38 147.148438 38.035156 C 147.28125 38.082031 147.375 38.121094 147.4375 38.167969 C 147.476562 38.195312 147.535156 38.261719 147.617188 38.355469 C 147.699219 38.457031 147.746094 38.53125 147.769531 38.585938 L 148.3125 39.628906 L 147.054688 39.628906 L 146.460938 38.523438 C 146.386719 38.382812 146.320312 38.289062 146.257812 38.242188 C 146.179688 38.1875 146.085938 38.15625 145.984375 38.15625 L 145.882812 38.15625 L 145.882812 39.625 L 144.765625 39.625 Z M 145.882812 37.484375 L 146.351562 37.484375 C 146.40625 37.484375 146.5 37.472656 146.648438 37.4375 C 146.71875 37.425781 146.78125 37.382812 146.828125 37.324219 C 146.875 37.261719 146.894531 37.1875 146.894531 37.117188 C 146.894531 37 146.855469 36.90625 146.78125 36.847656 C 146.707031 36.785156 146.566406 36.753906 146.367188 36.753906 L 145.875 36.753906 L 145.875 37.484375 Z M 145.882812 37.484375 "
          fill-opacity="1" fillRule="nonzero"/>
    <path fill="#821238"
          d="M 149.171875 38.445312 L 150.234375 38.375 C 150.253906 38.550781 150.300781 38.679688 150.375 38.773438 C 150.488281 38.917969 150.65625 38.992188 150.871094 38.992188 C 151.03125 38.992188 151.152344 38.953125 151.238281 38.878906 C 151.328125 38.804688 151.367188 38.71875 151.367188 38.617188 C 151.367188 38.523438 151.328125 38.4375 151.246094 38.363281 C 151.164062 38.289062 150.972656 38.222656 150.675781 38.15625 C 150.1875 38.046875 149.839844 37.898438 149.625 37.710938 C 149.417969 37.53125 149.3125 37.296875 149.3125 37.015625 C 149.3125 36.828125 149.363281 36.652344 149.472656 36.484375 C 149.578125 36.316406 149.738281 36.191406 149.960938 36.097656 C 150.175781 36.003906 150.476562 35.957031 150.851562 35.957031 C 151.3125 35.957031 151.667969 36.042969 151.910156 36.210938 C 152.148438 36.382812 152.296875 36.652344 152.34375 37.027344 L 151.292969 37.089844 C 151.265625 36.925781 151.207031 36.808594 151.117188 36.734375 C 151.03125 36.660156 150.90625 36.621094 150.75 36.621094 C 150.625 36.621094 150.523438 36.644531 150.457031 36.699219 C 150.390625 36.753906 150.355469 36.820312 150.355469 36.902344 C 150.355469 36.960938 150.382812 37.007812 150.4375 37.054688 C 150.488281 37.101562 150.617188 37.148438 150.8125 37.1875 C 151.300781 37.296875 151.648438 37.402344 151.863281 37.511719 C 152.078125 37.617188 152.222656 37.753906 152.324219 37.914062 C 152.417969 38.074219 152.472656 38.25 152.472656 38.449219 C 152.472656 38.683594 152.40625 38.898438 152.277344 39.09375 C 152.148438 39.289062 151.96875 39.4375 151.742188 39.535156 C 151.515625 39.636719 151.21875 39.691406 150.871094 39.691406 C 150.253906 39.691406 149.832031 39.570312 149.59375 39.335938 C 149.339844 39.105469 149.203125 38.804688 149.171875 38.445312 Z M 149.171875 38.445312 "
          fill-opacity="1" fillRule="nonzero"/>
    <path fill="#821238"
          d="M 153.742188 36.015625 L 154.863281 36.015625 L 154.863281 39.636719 L 153.742188 39.636719 Z M 153.742188 36.015625 "
          fill-opacity="1" fillRule="nonzero"/>
    <path fill="#821238"
          d="M 156.09375 36.015625 L 159.488281 36.015625 L 159.488281 36.90625 L 158.347656 36.90625 L 158.347656 39.636719 L 157.230469 39.636719 L 157.230469 36.90625 L 156.09375 36.90625 Z M 156.09375 36.015625 "
          fill-opacity="1" fillRule="nonzero"/>
    <path fill="#821238"
          d="M 160.316406 36.015625 L 161.554688 36.015625 L 162.285156 37.234375 L 163.015625 36.015625 L 164.246094 36.015625 L 162.84375 38.121094 L 162.84375 39.636719 L 161.722656 39.636719 L 161.722656 38.121094 Z M 160.316406 36.015625 "
          fill-opacity="1" fillRule="nonzero"/>
    <path fill="#821238"
          d="M 166.410156 37.136719 C 166.542969 37.511719 166.609375 37.90625 166.609375 38.324219 C 166.609375 38.726562 166.542969 39.105469 166.417969 39.476562 C 166.289062 39.84375 166.0625 40.253906 165.746094 40.703125 L 165.117188 40.703125 C 165.507812 39.90625 165.707031 39.132812 165.707031 38.382812 C 165.707031 37.992188 165.667969 37.625 165.585938 37.28125 C 165.492188 36.878906 165.339844 36.4375 165.117188 35.960938 L 165.746094 35.960938 C 166.054688 36.363281 166.277344 36.761719 166.410156 37.136719 Z M 166.410156 37.136719 "
          fill-opacity="1" fillRule="nonzero"/>
    <path fill="#821238"
          d="M 41.863281 45.621094 L 41.21875 45.621094 L 40.964844 44.957031 L 39.792969 44.957031 L 39.550781 45.621094 L 38.921875 45.621094 L 40.0625 42.6875 L 40.683594 42.6875 Z M 40.777344 44.453125 L 40.375 43.367188 L 39.980469 44.453125 Z M 40.777344 44.453125 "
          fill-opacity="1" fillRule="nonzero"/>
    <path fill="#821238"
          d="M 44.023438 44.117188 L 43.46875 44.21875 C 43.449219 44.105469 43.410156 44.023438 43.339844 43.96875 C 43.273438 43.917969 43.1875 43.882812 43.085938 43.882812 C 42.945312 43.882812 42.832031 43.929688 42.753906 44.03125 C 42.671875 44.125 42.625 44.292969 42.625 44.511719 C 42.625 44.769531 42.664062 44.941406 42.753906 45.050781 C 42.839844 45.15625 42.953125 45.203125 43.09375 45.203125 C 43.199219 45.203125 43.289062 45.171875 43.355469 45.109375 C 43.421875 45.050781 43.46875 44.941406 43.496094 44.792969 L 44.042969 44.886719 C 43.984375 45.144531 43.878906 45.332031 43.714844 45.464844 C 43.554688 45.59375 43.335938 45.660156 43.0625 45.660156 C 42.753906 45.660156 42.503906 45.558594 42.316406 45.363281 C 42.128906 45.171875 42.042969 44.894531 42.042969 44.554688 C 42.042969 44.203125 42.136719 43.929688 42.316406 43.734375 C 42.503906 43.539062 42.753906 43.441406 43.066406 43.441406 C 43.328125 43.441406 43.527344 43.492188 43.683594 43.609375 C 43.84375 43.722656 43.957031 43.890625 44.023438 44.117188 Z M 44.023438 44.117188 "
          fill-opacity="1" fillRule="nonzero"/>
    <path fill="#821238"
          d="M 46.300781 44.117188 L 45.746094 44.21875 C 45.726562 44.105469 45.683594 44.023438 45.617188 43.96875 C 45.550781 43.917969 45.464844 43.882812 45.363281 43.882812 C 45.222656 43.882812 45.109375 43.929688 45.027344 44.03125 C 44.949219 44.125 44.902344 44.292969 44.902344 44.511719 C 44.902344 44.769531 44.941406 44.941406 45.027344 45.050781 C 45.117188 45.15625 45.230469 45.203125 45.371094 45.203125 C 45.476562 45.203125 45.566406 45.171875 45.632812 45.109375 C 45.699219 45.050781 45.746094 44.941406 45.773438 44.792969 L 46.320312 44.886719 C 46.261719 45.144531 46.152344 45.332031 45.992188 45.464844 C 45.832031 45.59375 45.613281 45.660156 45.335938 45.660156 C 45.027344 45.660156 44.78125 45.558594 44.59375 45.363281 C 44.40625 45.171875 44.320312 44.894531 44.320312 44.554688 C 44.320312 44.203125 44.414062 43.929688 44.59375 43.734375 C 44.78125 43.539062 45.027344 43.441406 45.34375 43.441406 C 45.605469 43.441406 45.804688 43.492188 45.960938 43.609375 C 46.121094 43.722656 46.234375 43.890625 46.300781 44.117188 Z M 46.300781 44.117188 "
          fill-opacity="1" fillRule="nonzero"/>
    <path fill="#821238"
          d="M 47.265625 45.621094 L 46.703125 45.621094 L 46.703125 43.492188 L 47.226562 43.492188 L 47.226562 43.796875 C 47.3125 43.65625 47.390625 43.5625 47.464844 43.515625 C 47.539062 43.464844 47.621094 43.445312 47.707031 43.445312 C 47.835938 43.445312 47.953125 43.480469 48.074219 43.554688 L 47.902344 44.042969 C 47.808594 43.984375 47.71875 43.949219 47.640625 43.949219 C 47.558594 43.949219 47.492188 43.96875 47.4375 44.015625 C 47.386719 44.058594 47.339844 44.136719 47.3125 44.25 C 47.277344 44.367188 47.265625 44.601562 47.265625 44.960938 Z M 47.265625 45.621094 "
          fill-opacity="1" fillRule="nonzero"/>
    <path fill="#821238"
          d="M 49.546875 44.941406 L 50.109375 45.035156 C 50.035156 45.242188 49.921875 45.398438 49.769531 45.503906 C 49.609375 45.613281 49.414062 45.667969 49.179688 45.667969 C 48.8125 45.667969 48.539062 45.546875 48.363281 45.304688 C 48.222656 45.109375 48.15625 44.867188 48.15625 44.574219 C 48.15625 44.21875 48.25 43.941406 48.429688 43.75 C 48.609375 43.546875 48.84375 43.445312 49.125 43.445312 C 49.441406 43.445312 49.6875 43.554688 49.875 43.761719 C 50.058594 43.96875 50.144531 44.292969 50.136719 44.722656 L 48.730469 44.722656 C 48.738281 44.886719 48.777344 45.015625 48.863281 45.109375 C 48.953125 45.203125 49.058594 45.25 49.1875 45.25 C 49.273438 45.25 49.347656 45.222656 49.40625 45.175781 C 49.46875 45.125 49.515625 45.050781 49.546875 44.941406 Z M 49.574219 44.371094 C 49.566406 44.210938 49.527344 44.082031 49.449219 44.003906 C 49.367188 43.917969 49.273438 43.875 49.152344 43.875 C 49.03125 43.875 48.933594 43.921875 48.851562 44.011719 C 48.769531 44.097656 48.730469 44.21875 48.730469 44.371094 Z M 49.574219 44.371094 "
          fill-opacity="1" fillRule="nonzero"/>
    <path fill="#821238"
          d="M 52.539062 45.621094 L 52.019531 45.621094 L 52.019531 45.304688 C 51.929688 45.425781 51.832031 45.519531 51.710938 45.574219 C 51.589844 45.632812 51.476562 45.660156 51.355469 45.660156 C 51.113281 45.660156 50.902344 45.558594 50.726562 45.363281 C 50.550781 45.171875 50.464844 44.894531 50.464844 44.539062 C 50.464844 44.175781 50.550781 43.902344 50.71875 43.722656 C 50.886719 43.539062 51.101562 43.441406 51.363281 43.441406 C 51.597656 43.441406 51.804688 43.539062 51.976562 43.734375 L 51.976562 42.675781 L 52.539062 42.675781 Z M 51.042969 44.507812 C 51.042969 44.734375 51.074219 44.894531 51.136719 44.996094 C 51.230469 45.144531 51.347656 45.21875 51.515625 45.21875 C 51.644531 45.21875 51.757812 45.164062 51.84375 45.050781 C 51.9375 44.941406 51.976562 44.773438 51.976562 44.554688 C 51.976562 44.3125 51.929688 44.128906 51.84375 44.023438 C 51.757812 43.917969 51.644531 43.863281 51.507812 43.863281 C 51.375 43.863281 51.261719 43.917969 51.175781 44.023438 C 51.089844 44.136719 51.042969 44.296875 51.042969 44.507812 Z M 51.042969 44.507812 "
          fill-opacity="1" fillRule="nonzero"/>
    <path fill="#821238"
          d="M 53.089844 43.207031 L 53.089844 42.683594 L 53.652344 42.683594 L 53.652344 43.207031 Z M 53.089844 45.621094 L 53.089844 43.492188 L 53.652344 43.492188 L 53.652344 45.621094 Z M 53.089844 45.621094 "
          fill-opacity="1" fillRule="nonzero"/>
    <path fill="#821238"
          d="M 55.207031 43.492188 L 55.207031 43.941406 L 54.824219 43.941406 L 54.824219 44.800781 C 54.824219 44.976562 54.832031 45.078125 54.835938 45.101562 C 54.84375 45.128906 54.863281 45.15625 54.882812 45.175781 C 54.910156 45.195312 54.945312 45.203125 54.976562 45.203125 C 55.03125 45.203125 55.105469 45.183594 55.207031 45.148438 L 55.253906 45.585938 C 55.125 45.640625 54.972656 45.671875 54.808594 45.671875 C 54.710938 45.671875 54.617188 45.652344 54.535156 45.621094 C 54.457031 45.585938 54.394531 45.539062 54.355469 45.484375 C 54.316406 45.433594 54.289062 45.359375 54.273438 45.265625 C 54.261719 45.195312 54.253906 45.070312 54.253906 44.867188 L 54.253906 43.9375 L 54 43.9375 L 54 43.488281 L 54.261719 43.488281 L 54.261719 43.0625 L 54.824219 42.734375 L 54.824219 43.488281 L 55.207031 43.488281 Z M 55.207031 43.492188 "
          fill-opacity="1" fillRule="nonzero"/>
    <path fill="#821238"
          d="M 56.820312 44.941406 L 57.382812 45.035156 C 57.308594 45.242188 57.195312 45.398438 57.039062 45.503906 C 56.886719 45.613281 56.691406 45.667969 56.457031 45.667969 C 56.089844 45.667969 55.816406 45.546875 55.640625 45.304688 C 55.5 45.109375 55.433594 44.867188 55.433594 44.574219 C 55.433594 44.21875 55.527344 43.941406 55.707031 43.75 C 55.886719 43.546875 56.121094 43.445312 56.402344 43.445312 C 56.71875 43.445312 56.964844 43.554688 57.152344 43.761719 C 57.335938 43.96875 57.421875 44.292969 57.414062 44.722656 L 56.007812 44.722656 C 56.015625 44.886719 56.054688 45.015625 56.144531 45.109375 C 56.230469 45.203125 56.335938 45.25 56.464844 45.25 C 56.550781 45.25 56.625 45.222656 56.683594 45.175781 C 56.746094 45.125 56.792969 45.050781 56.820312 44.941406 Z M 56.851562 44.371094 C 56.847656 44.210938 56.804688 44.082031 56.726562 44.003906 C 56.644531 43.917969 56.550781 43.875 56.429688 43.875 C 56.308594 43.875 56.210938 43.921875 56.128906 44.011719 C 56.050781 44.097656 56.007812 44.21875 56.007812 44.371094 Z M 56.851562 44.371094 "
          fill-opacity="1" fillRule="nonzero"/>
    <path fill="#821238"
          d="M 59.8125 45.621094 L 59.289062 45.621094 L 59.289062 45.304688 C 59.203125 45.425781 59.101562 45.519531 58.980469 45.574219 C 58.859375 45.632812 58.746094 45.660156 58.625 45.660156 C 58.386719 45.660156 58.171875 45.558594 57.996094 45.363281 C 57.824219 45.171875 57.734375 44.894531 57.734375 44.539062 C 57.734375 44.175781 57.824219 43.902344 57.992188 43.722656 C 58.15625 43.535156 58.371094 43.441406 58.632812 43.441406 C 58.867188 43.441406 59.074219 43.539062 59.25 43.734375 L 59.25 42.675781 L 59.8125 42.675781 Z M 58.3125 44.507812 C 58.3125 44.734375 58.34375 44.894531 58.40625 44.996094 C 58.5 45.144531 58.621094 45.21875 58.789062 45.21875 C 58.914062 45.21875 59.027344 45.164062 59.117188 45.050781 C 59.210938 44.941406 59.25 44.773438 59.25 44.554688 C 59.25 44.3125 59.203125 44.128906 59.117188 44.023438 C 59.027344 43.917969 58.914062 43.863281 58.78125 43.863281 C 58.648438 43.863281 58.53125 43.917969 58.445312 44.023438 C 58.359375 44.136719 58.3125 44.296875 58.3125 44.507812 Z M 58.3125 44.507812 "
          fill-opacity="1" fillRule="nonzero"/>
    <path fill="#821238"
          d="M 61.902344 45.621094 L 61.230469 43.492188 L 61.773438 43.492188 L 62.167969 44.886719 L 62.535156 43.492188 L 63.078125 43.492188 L 63.433594 44.886719 L 63.84375 43.492188 L 64.398438 43.492188 L 63.714844 45.621094 L 63.171875 45.621094 L 62.804688 44.25 L 62.441406 45.621094 Z M 61.902344 45.621094 "
          fill-opacity="1" fillRule="nonzero"/>
    <path fill="#821238"
          d="M 64.6875 43.207031 L 64.6875 42.683594 L 65.246094 42.683594 L 65.246094 43.207031 Z M 64.6875 45.621094 L 64.6875 43.492188 L 65.246094 43.492188 L 65.246094 45.621094 Z M 64.6875 45.621094 "
          fill-opacity="1" fillRule="nonzero"/>
    <path fill="#821238"
          d="M 66.792969 43.492188 L 66.792969 43.941406 L 66.414062 43.941406 L 66.414062 44.800781 C 66.414062 44.976562 66.417969 45.078125 66.425781 45.101562 C 66.433594 45.128906 66.453125 45.15625 66.472656 45.175781 C 66.5 45.195312 66.535156 45.203125 66.566406 45.203125 C 66.621094 45.203125 66.695312 45.183594 66.792969 45.148438 L 66.839844 45.585938 C 66.714844 45.640625 66.558594 45.671875 66.398438 45.671875 C 66.300781 45.671875 66.207031 45.652344 66.125 45.621094 C 66.042969 45.585938 65.984375 45.539062 65.945312 45.484375 C 65.902344 45.433594 65.878906 45.359375 65.863281 45.265625 C 65.851562 45.195312 65.84375 45.070312 65.84375 44.867188 L 65.84375 43.9375 L 65.582031 43.9375 L 65.582031 43.488281 L 65.84375 43.488281 L 65.84375 43.0625 L 66.40625 42.734375 L 66.40625 43.488281 L 66.792969 43.488281 Z M 66.792969 43.492188 "
          fill-opacity="1" fillRule="nonzero"/>
    <path fill="#821238"
          d="M 67.746094 42.683594 L 67.746094 43.761719 C 67.925781 43.546875 68.140625 43.445312 68.394531 43.445312 C 68.523438 43.445312 68.640625 43.472656 68.742188 43.519531 C 68.851562 43.566406 68.921875 43.628906 68.976562 43.703125 C 69.03125 43.773438 69.0625 43.855469 69.085938 43.949219 C 69.105469 44.042969 69.109375 44.183594 69.109375 44.371094 L 69.109375 45.621094 L 68.546875 45.621094 L 68.546875 44.5 C 68.546875 44.277344 68.535156 44.136719 68.515625 44.078125 C 68.496094 44.015625 68.453125 43.96875 68.402344 43.9375 C 68.347656 43.902344 68.28125 43.882812 68.199219 43.882812 C 68.105469 43.882812 68.027344 43.902344 67.953125 43.949219 C 67.878906 43.996094 67.824219 44.0625 67.792969 44.15625 C 67.757812 44.25 67.738281 44.386719 67.738281 44.558594 L 67.738281 45.625 L 67.175781 45.625 L 67.175781 42.695312 L 67.746094 42.695312 Z M 67.746094 42.683594 "
          fill-opacity="1" fillRule="nonzero"/>
    <path fill="#821238"
          d="M 72.191406 44.539062 L 72.191406 44.042969 L 73.460938 44.042969 L 73.460938 45.210938 C 73.335938 45.332031 73.160156 45.4375 72.925781 45.527344 C 72.691406 45.621094 72.453125 45.660156 72.210938 45.660156 C 71.902344 45.660156 71.636719 45.59375 71.40625 45.464844 C 71.179688 45.339844 71.003906 45.148438 70.890625 44.914062 C 70.777344 44.675781 70.71875 44.414062 70.71875 44.128906 C 70.71875 43.820312 70.785156 43.554688 70.910156 43.320312 C 71.039062 43.085938 71.226562 42.898438 71.472656 42.777344 C 71.660156 42.675781 71.894531 42.628906 72.175781 42.628906 C 72.539062 42.628906 72.828125 42.703125 73.027344 42.855469 C 73.234375 43.011719 73.363281 43.21875 73.421875 43.488281 L 72.832031 43.59375 C 72.792969 43.453125 72.714844 43.339844 72.597656 43.253906 C 72.484375 43.171875 72.34375 43.125 72.171875 43.125 C 71.910156 43.125 71.707031 43.207031 71.554688 43.371094 C 71.402344 43.535156 71.328125 43.78125 71.328125 44.105469 C 71.328125 44.453125 71.40625 44.714844 71.5625 44.886719 C 71.714844 45.0625 71.917969 45.148438 72.171875 45.148438 C 72.292969 45.148438 72.417969 45.125 72.546875 45.078125 C 72.671875 45.03125 72.78125 44.96875 72.867188 44.902344 L 72.867188 44.539062 Z M 72.191406 44.539062 "
          fill-opacity="1" fillRule="nonzero"/>
    <path fill="#821238"
          d="M 74.539062 45.621094 L 73.976562 45.621094 L 73.976562 43.492188 L 74.5 43.492188 L 74.5 43.796875 C 74.585938 43.65625 74.667969 43.5625 74.742188 43.515625 C 74.816406 43.464844 74.894531 43.445312 74.984375 43.445312 C 75.109375 43.445312 75.238281 43.480469 75.351562 43.554688 L 75.175781 44.042969 C 75.082031 43.984375 74.996094 43.949219 74.914062 43.949219 C 74.835938 43.949219 74.769531 43.96875 74.714844 44.015625 C 74.660156 44.058594 74.613281 44.136719 74.585938 44.25 C 74.554688 44.367188 74.539062 44.601562 74.539062 44.960938 Z M 74.539062 45.621094 "
          fill-opacity="1" fillRule="nonzero"/>
    <path fill="#821238"
          d="M 76.019531 44.136719 L 75.511719 44.042969 C 75.570312 43.835938 75.664062 43.6875 75.804688 43.585938 C 75.945312 43.488281 76.152344 43.441406 76.429688 43.441406 C 76.675781 43.441406 76.863281 43.464844 76.992188 43.527344 C 77.113281 43.585938 77.199219 43.660156 77.253906 43.753906 C 77.300781 43.847656 77.324219 44.015625 77.324219 44.257812 L 77.320312 44.914062 C 77.320312 45.101562 77.324219 45.238281 77.347656 45.332031 C 77.367188 45.417969 77.398438 45.511719 77.445312 45.621094 L 76.890625 45.621094 C 76.878906 45.578125 76.855469 45.527344 76.835938 45.453125 C 76.832031 45.417969 76.824219 45.398438 76.816406 45.386719 C 76.722656 45.480469 76.617188 45.546875 76.507812 45.59375 C 76.402344 45.640625 76.28125 45.660156 76.160156 45.660156 C 75.941406 45.660156 75.773438 45.597656 75.644531 45.480469 C 75.519531 45.359375 75.457031 45.210938 75.457031 45.03125 C 75.457031 44.910156 75.484375 44.800781 75.546875 44.707031 C 75.605469 44.613281 75.6875 44.539062 75.785156 44.492188 C 75.886719 44.445312 76.039062 44.398438 76.234375 44.359375 C 76.496094 44.3125 76.675781 44.265625 76.777344 44.21875 L 76.777344 44.164062 C 76.777344 44.058594 76.75 43.976562 76.695312 43.9375 C 76.644531 43.890625 76.542969 43.867188 76.394531 43.867188 C 76.292969 43.867188 76.214844 43.890625 76.160156 43.929688 C 76.101562 43.96875 76.054688 44.042969 76.019531 44.136719 Z M 76.769531 44.59375 C 76.695312 44.621094 76.582031 44.648438 76.429688 44.679688 C 76.273438 44.714844 76.167969 44.746094 76.121094 44.78125 C 76.046875 44.835938 76.015625 44.902344 76.015625 44.984375 C 76.015625 45.0625 76.039062 45.128906 76.101562 45.183594 C 76.160156 45.242188 76.234375 45.269531 76.320312 45.269531 C 76.421875 45.269531 76.523438 45.238281 76.609375 45.171875 C 76.675781 45.117188 76.722656 45.054688 76.742188 44.984375 C 76.757812 44.933594 76.761719 44.839844 76.761719 44.707031 L 76.761719 44.59375 Z M 76.769531 44.59375 "
          fill-opacity="1" fillRule="nonzero"/>
    <path fill="#821238"
          d="M 79.816406 45.621094 L 79.292969 45.621094 L 79.292969 45.304688 C 79.207031 45.425781 79.105469 45.519531 78.984375 45.574219 C 78.867188 45.632812 78.75 45.660156 78.632812 45.660156 C 78.390625 45.660156 78.175781 45.558594 78.003906 45.363281 C 77.828125 45.171875 77.742188 44.894531 77.742188 44.539062 C 77.742188 44.175781 77.828125 43.902344 77.996094 43.722656 C 78.164062 43.535156 78.378906 43.441406 78.636719 43.441406 C 78.871094 43.441406 79.078125 43.539062 79.253906 43.734375 L 79.253906 42.675781 L 79.816406 42.675781 Z M 78.324219 44.507812 C 78.324219 44.734375 78.355469 44.894531 78.417969 44.996094 C 78.511719 45.144531 78.632812 45.21875 78.800781 45.21875 C 78.925781 45.21875 79.039062 45.164062 79.125 45.050781 C 79.21875 44.941406 79.261719 44.773438 79.261719 44.554688 C 79.261719 44.3125 79.214844 44.128906 79.125 44.023438 C 79.039062 43.917969 78.925781 43.863281 78.792969 43.863281 C 78.660156 43.863281 78.542969 43.917969 78.457031 44.023438 C 78.363281 44.136719 78.324219 44.296875 78.324219 44.507812 Z M 78.324219 44.507812 "
          fill-opacity="1" fillRule="nonzero"/>
    <path fill="#821238"
          d="M 81.605469 44.941406 L 82.167969 45.035156 C 82.09375 45.242188 81.980469 45.398438 81.824219 45.503906 C 81.671875 45.613281 81.476562 45.667969 81.242188 45.667969 C 80.875 45.667969 80.601562 45.546875 80.425781 45.304688 C 80.285156 45.109375 80.21875 44.867188 80.21875 44.574219 C 80.21875 44.21875 80.3125 43.941406 80.492188 43.75 C 80.671875 43.546875 80.90625 43.445312 81.1875 43.445312 C 81.503906 43.445312 81.75 43.554688 81.9375 43.761719 C 82.121094 43.96875 82.207031 44.292969 82.199219 44.722656 L 80.792969 44.722656 C 80.800781 44.886719 80.839844 45.015625 80.929688 45.109375 C 81.015625 45.203125 81.121094 45.25 81.25 45.25 C 81.335938 45.25 81.410156 45.222656 81.46875 45.175781 C 81.523438 45.125 81.570312 45.050781 81.605469 44.941406 Z M 81.628906 44.371094 C 81.625 44.210938 81.582031 44.082031 81.503906 44.003906 C 81.421875 43.917969 81.328125 43.875 81.210938 43.875 C 81.089844 43.875 80.988281 43.921875 80.90625 44.011719 C 80.828125 44.097656 80.789062 44.21875 80.789062 44.371094 Z M 81.628906 44.371094 "
          fill-opacity="1" fillRule="nonzero"/>
    <path fill="#821238"
          d="M 84.316406 43.867188 L 83.753906 43.867188 L 83.753906 43.464844 C 83.753906 43.304688 83.765625 43.179688 83.792969 43.085938 C 83.820312 42.992188 83.875 42.902344 83.953125 42.828125 C 84.035156 42.753906 84.128906 42.695312 84.25 42.65625 L 84.355469 42.890625 C 84.242188 42.929688 84.160156 42.976562 84.113281 43.042969 C 84.066406 43.109375 84.042969 43.199219 84.042969 43.3125 L 84.316406 43.3125 Z M 85.253906 43.867188 L 84.691406 43.867188 L 84.691406 43.464844 C 84.691406 43.304688 84.703125 43.171875 84.730469 43.078125 C 84.757812 42.984375 84.8125 42.902344 84.890625 42.824219 C 84.972656 42.75 85.066406 42.6875 85.1875 42.648438 L 85.292969 42.882812 C 85.179688 42.921875 85.097656 42.96875 85.050781 43.039062 C 85.003906 43.105469 84.976562 43.191406 84.976562 43.304688 L 85.253906 43.304688 Z M 85.253906 43.867188 "
          fill-opacity="1" fillRule="nonzero"/>
    <path fill="#821238"
          d="M 88.480469 45.621094 L 87.835938 45.621094 L 87.582031 44.957031 L 86.410156 44.957031 L 86.171875 45.621094 L 85.539062 45.621094 L 86.679688 42.6875 L 87.300781 42.6875 Z M 87.386719 44.453125 L 86.988281 43.367188 L 86.59375 44.453125 Z M 87.386719 44.453125 "
          fill-opacity="1" fillRule="nonzero"/>
    <path fill="#821238"
          d="M 88.746094 42.683594 L 89.308594 42.683594 L 89.308594 43.085938 C 89.308594 43.246094 89.296875 43.371094 89.269531 43.464844 C 89.242188 43.5625 89.191406 43.648438 89.109375 43.722656 C 89.027344 43.796875 88.933594 43.855469 88.816406 43.894531 L 88.707031 43.660156 C 88.820312 43.621094 88.902344 43.574219 88.949219 43.507812 C 88.996094 43.441406 89.023438 43.351562 89.023438 43.238281 L 88.746094 43.238281 Z M 89.691406 42.683594 L 90.253906 42.683594 L 90.253906 43.085938 C 90.253906 43.246094 90.242188 43.371094 90.214844 43.464844 C 90.1875 43.5625 90.132812 43.648438 90.054688 43.722656 C 89.972656 43.796875 89.878906 43.855469 89.757812 43.894531 L 89.652344 43.660156 C 89.765625 43.621094 89.84375 43.574219 89.890625 43.507812 C 89.9375 43.441406 89.964844 43.351562 89.964844 43.238281 L 89.699219 43.238281 L 89.699219 42.683594 Z M 89.691406 42.683594 "
          fill-opacity="1" fillRule="nonzero"/>
    <path fill="#821238"
          d="M 91.949219 45.621094 L 91.949219 42.6875 L 92.511719 42.6875 L 92.511719 43.75 C 92.683594 43.554688 92.890625 43.453125 93.125 43.453125 C 93.386719 43.453125 93.601562 43.546875 93.769531 43.734375 C 93.9375 43.921875 94.023438 44.191406 94.023438 44.539062 C 94.023438 44.902344 93.9375 45.183594 93.761719 45.378906 C 93.589844 45.574219 93.378906 45.671875 93.132812 45.671875 C 93.011719 45.671875 92.890625 45.640625 92.769531 45.578125 C 92.652344 45.519531 92.550781 45.433594 92.464844 45.3125 L 92.464844 45.625 L 91.949219 45.625 Z M 92.503906 44.507812 C 92.503906 44.726562 92.539062 44.886719 92.609375 44.996094 C 92.710938 45.144531 92.839844 45.21875 93 45.21875 C 93.125 45.21875 93.226562 45.164062 93.3125 45.054688 C 93.402344 44.949219 93.449219 44.78125 93.449219 44.554688 C 93.449219 44.3125 93.402344 44.136719 93.3125 44.03125 C 93.226562 43.921875 93.113281 43.867188 92.980469 43.867188 C 92.84375 43.867188 92.730469 43.921875 92.644531 44.023438 C 92.558594 44.125 92.503906 44.292969 92.503906 44.507812 Z M 92.503906 44.507812 "
          fill-opacity="1" fillRule="nonzero"/>
    <path fill="#821238"
          d="M 94.203125 43.492188 L 94.800781 43.492188 L 95.308594 45.003906 L 95.804688 43.492188 L 96.386719 43.492188 L 95.636719 45.539062 L 95.503906 45.90625 C 95.457031 46.027344 95.410156 46.128906 95.363281 46.191406 C 95.316406 46.257812 95.269531 46.308594 95.207031 46.351562 C 95.148438 46.390625 95.082031 46.425781 94.996094 46.445312 C 94.90625 46.464844 94.8125 46.476562 94.707031 46.476562 C 94.597656 46.476562 94.492188 46.464844 94.390625 46.445312 L 94.34375 46 C 94.433594 46.023438 94.511719 46.027344 94.585938 46.027344 C 94.714844 46.027344 94.8125 45.988281 94.875 45.914062 C 94.933594 45.839844 94.988281 45.742188 95.015625 45.621094 Z M 94.203125 43.492188 "
          fill-opacity="1" fillRule="nonzero"/>
    <path fill="#821238"
          d="M 97.894531 45.621094 L 97.894531 42.6875 L 98.46875 42.6875 L 99.667969 44.648438 L 99.667969 42.6875 L 100.214844 42.6875 L 100.214844 45.621094 L 99.621094 45.621094 L 98.441406 43.707031 L 98.441406 45.621094 Z M 97.894531 45.621094 "
          fill-opacity="1" fillRule="nonzero"/>
    <path fill="#821238"
          d="M 103.484375 45.621094 L 102.839844 45.621094 L 102.585938 44.957031 L 101.414062 44.957031 L 101.171875 45.621094 L 100.542969 45.621094 L 101.683594 42.6875 L 102.304688 42.6875 Z M 102.390625 44.453125 L 101.992188 43.367188 L 101.59375 44.453125 Z M 102.390625 44.453125 "
          fill-opacity="1" fillRule="nonzero"/>
    <path fill="#821238"
          d="M 106.4375 45.621094 L 105.792969 45.621094 L 105.539062 44.957031 L 104.367188 44.957031 L 104.125 45.621094 L 103.496094 45.621094 L 104.636719 42.6875 L 105.257812 42.6875 Z M 105.351562 44.453125 L 104.949219 43.367188 L 104.554688 44.453125 Z M 105.351562 44.453125 "
          fill-opacity="1" fillRule="nonzero"/>
    <path fill="#821238"
          d="M 108.625 44.539062 L 109.199219 44.722656 C 109.113281 45.042969 108.964844 45.277344 108.765625 45.433594 C 108.558594 45.585938 108.304688 45.667969 107.988281 45.667969 C 107.601562 45.667969 107.28125 45.53125 107.03125 45.265625 C 106.785156 44.996094 106.65625 44.632812 106.65625 44.171875 C 106.65625 43.679688 106.785156 43.304688 107.03125 43.03125 C 107.285156 42.761719 107.613281 42.628906 108.023438 42.628906 C 108.382812 42.628906 108.671875 42.734375 108.894531 42.945312 C 109.027344 43.070312 109.128906 43.253906 109.195312 43.488281 L 108.613281 43.628906 C 108.578125 43.472656 108.503906 43.351562 108.398438 43.265625 C 108.289062 43.179688 108.15625 43.132812 107.996094 43.132812 C 107.78125 43.132812 107.601562 43.210938 107.46875 43.367188 C 107.332031 43.519531 107.265625 43.773438 107.265625 44.125 C 107.265625 44.492188 107.332031 44.761719 107.46875 44.914062 C 107.601562 45.070312 107.773438 45.148438 107.988281 45.148438 C 108.144531 45.148438 108.285156 45.101562 108.398438 45.003906 C 108.492188 44.910156 108.578125 44.753906 108.625 44.539062 Z M 108.625 44.539062 "
          fill-opacity="1" fillRule="nonzero"/>
    <path fill="#821238"
          d="M 112.03125 42.628906 L 112.480469 42.628906 L 112.480469 46.476562 L 112.03125 46.476562 Z M 112.03125 42.628906 "
          fill-opacity="1" fillRule="nonzero"/>
    <path fill="#821238"
          d="M 116.714844 45.621094 L 116.152344 45.621094 L 116.152344 43.5 C 115.941406 43.695312 115.703125 43.835938 115.425781 43.929688 L 115.425781 43.417969 C 115.574219 43.371094 115.734375 43.277344 115.902344 43.144531 C 116.078125 43.011719 116.191406 42.855469 116.257812 42.675781 L 116.714844 42.675781 Z M 116.714844 45.621094 "
          fill-opacity="1" fillRule="nonzero"/>
    <path fill="#821238"
          d="M 119.445312 45.097656 L 119.445312 45.621094 L 117.476562 45.621094 C 117.496094 45.425781 117.5625 45.238281 117.671875 45.054688 C 117.777344 44.882812 117.984375 44.648438 118.300781 44.351562 C 118.554688 44.117188 118.707031 43.957031 118.769531 43.867188 C 118.847656 43.753906 118.882812 43.640625 118.882812 43.527344 C 118.882812 43.398438 118.847656 43.304688 118.78125 43.238281 C 118.714844 43.171875 118.621094 43.136719 118.5 43.136719 C 118.378906 43.136719 118.292969 43.171875 118.21875 43.246094 C 118.152344 43.320312 118.113281 43.433594 118.097656 43.601562 L 117.535156 43.546875 C 117.570312 43.238281 117.675781 43.015625 117.851562 42.882812 C 118.023438 42.75 118.246094 42.683594 118.507812 42.683594 C 118.796875 42.683594 119.023438 42.761719 119.191406 42.917969 C 119.359375 43.070312 119.4375 43.265625 119.4375 43.5 C 119.4375 43.632812 119.410156 43.753906 119.363281 43.875 C 119.316406 43.996094 119.242188 44.117188 119.136719 44.25 C 119.070312 44.339844 118.949219 44.464844 118.769531 44.628906 C 118.585938 44.789062 118.480469 44.894531 118.433594 44.949219 C 118.386719 45.003906 118.347656 45.054688 118.320312 45.101562 L 119.445312 45.101562 Z M 119.445312 45.097656 "
          fill-opacity="1" fillRule="nonzero"/>
    <path fill="#821238"
          d="M 119.953125 42.683594 L 121.125 42.683594 C 121.359375 42.683594 121.527344 42.6875 121.640625 42.707031 C 121.753906 42.730469 121.855469 42.769531 121.949219 42.828125 C 122.035156 42.890625 122.117188 42.96875 122.175781 43.078125 C 122.238281 43.179688 122.261719 43.292969 122.261719 43.417969 C 122.261719 43.554688 122.222656 43.679688 122.148438 43.796875 C 122.074219 43.910156 121.976562 43.996094 121.847656 44.050781 C 122.027344 44.105469 122.164062 44.191406 122.257812 44.320312 C 122.351562 44.445312 122.398438 44.59375 122.398438 44.761719 C 122.398438 44.894531 122.363281 45.023438 122.304688 45.148438 C 122.242188 45.277344 122.15625 45.378906 122.050781 45.453125 C 121.941406 45.527344 121.808594 45.574219 121.652344 45.59375 C 121.554688 45.605469 121.320312 45.613281 120.9375 45.613281 L 119.941406 45.613281 L 119.941406 42.683594 Z M 120.542969 43.171875 L 120.542969 43.847656 L 120.929688 43.847656 C 121.160156 43.847656 121.304688 43.847656 121.359375 43.84375 C 121.460938 43.828125 121.539062 43.796875 121.601562 43.734375 C 121.660156 43.675781 121.6875 43.601562 121.6875 43.507812 C 121.6875 43.414062 121.660156 43.339844 121.613281 43.285156 C 121.566406 43.230469 121.488281 43.191406 121.394531 43.183594 C 121.332031 43.179688 121.164062 43.179688 120.890625 43.179688 L 120.542969 43.179688 Z M 120.542969 44.339844 L 120.542969 45.125 L 121.089844 45.125 C 121.304688 45.125 121.441406 45.117188 121.5 45.101562 C 121.585938 45.089844 121.660156 45.050781 121.714844 44.988281 C 121.769531 44.929688 121.792969 44.839844 121.792969 44.742188 C 121.792969 44.652344 121.773438 44.578125 121.726562 44.519531 C 121.6875 44.460938 121.621094 44.414062 121.539062 44.386719 C 121.460938 44.359375 121.285156 44.34375 121.019531 44.34375 L 120.542969 44.34375 Z M 120.542969 44.339844 "
          fill-opacity="1" fillRule="nonzero"/>
    <path fill="#821238"
          d="M 123.890625 44.660156 L 124.464844 44.605469 C 124.5 44.800781 124.574219 44.941406 124.671875 45.035156 C 124.78125 45.128906 124.921875 45.171875 125.101562 45.171875 C 125.289062 45.171875 125.4375 45.128906 125.53125 45.050781 C 125.625 44.96875 125.675781 44.875 125.675781 44.769531 C 125.675781 44.699219 125.65625 44.640625 125.617188 44.59375 C 125.578125 44.546875 125.503906 44.5 125.402344 44.464844 C 125.335938 44.4375 125.175781 44.398438 124.929688 44.339844 C 124.613281 44.257812 124.386719 44.164062 124.257812 44.050781 C 124.078125 43.890625 123.992188 43.695312 123.992188 43.460938 C 123.992188 43.3125 124.03125 43.171875 124.117188 43.039062 C 124.203125 42.910156 124.324219 42.808594 124.484375 42.742188 C 124.648438 42.675781 124.835938 42.640625 125.0625 42.640625 C 125.429688 42.640625 125.703125 42.722656 125.890625 42.882812 C 126.078125 43.042969 126.171875 43.257812 126.1875 43.527344 L 125.597656 43.554688 C 125.570312 43.40625 125.515625 43.292969 125.4375 43.226562 C 125.355469 43.160156 125.230469 43.125 125.0625 43.125 C 124.886719 43.125 124.753906 43.160156 124.660156 43.230469 C 124.601562 43.277344 124.566406 43.339844 124.566406 43.414062 C 124.566406 43.480469 124.59375 43.539062 124.652344 43.59375 C 124.726562 43.65625 124.90625 43.722656 125.195312 43.789062 C 125.484375 43.855469 125.699219 43.929688 125.832031 43.996094 C 125.972656 44.070312 126.078125 44.171875 126.152344 44.292969 C 126.234375 44.417969 126.265625 44.574219 126.265625 44.761719 C 126.265625 44.929688 126.21875 45.089844 126.125 45.230469 C 126.03125 45.378906 125.898438 45.484375 125.730469 45.558594 C 125.5625 45.632812 125.347656 45.667969 125.09375 45.667969 C 124.726562 45.667969 124.4375 45.578125 124.246094 45.410156 C 124.050781 45.238281 123.929688 44.988281 123.890625 44.660156 Z M 123.890625 44.660156 "
          fill-opacity="1" fillRule="nonzero"/>
    <path fill="#821238"
          d="M 127.738281 43.492188 L 127.738281 43.941406 L 127.359375 43.941406 L 127.359375 44.800781 C 127.359375 44.976562 127.363281 45.078125 127.371094 45.101562 C 127.378906 45.128906 127.398438 45.15625 127.417969 45.175781 C 127.445312 45.195312 127.480469 45.203125 127.511719 45.203125 C 127.566406 45.203125 127.640625 45.183594 127.738281 45.148438 L 127.785156 45.585938 C 127.660156 45.640625 127.503906 45.671875 127.34375 45.671875 C 127.246094 45.671875 127.152344 45.652344 127.070312 45.621094 C 126.988281 45.585938 126.929688 45.539062 126.890625 45.484375 C 126.847656 45.433594 126.824219 45.359375 126.808594 45.265625 C 126.796875 45.195312 126.789062 45.070312 126.789062 44.867188 L 126.789062 43.9375 L 126.527344 43.9375 L 126.527344 43.488281 L 126.789062 43.488281 L 126.789062 43.0625 L 127.351562 42.734375 L 127.351562 43.488281 L 127.738281 43.488281 Z M 127.738281 43.492188 "
          fill-opacity="1" fillRule="nonzero"/>
    <path fill="#821238"
          d="M 128.550781 44.136719 L 128.042969 44.042969 C 128.101562 43.835938 128.195312 43.6875 128.335938 43.585938 C 128.476562 43.488281 128.683594 43.441406 128.957031 43.441406 C 129.207031 43.441406 129.394531 43.464844 129.519531 43.527344 C 129.640625 43.585938 129.726562 43.660156 129.78125 43.753906 C 129.828125 43.847656 129.855469 44.015625 129.855469 44.257812 L 129.847656 44.914062 C 129.847656 45.101562 129.855469 45.238281 129.875 45.332031 C 129.894531 45.417969 129.929688 45.511719 129.976562 45.621094 L 129.421875 45.621094 C 129.40625 45.578125 129.386719 45.527344 129.367188 45.453125 C 129.359375 45.417969 129.351562 45.398438 129.347656 45.386719 C 129.253906 45.480469 129.144531 45.546875 129.039062 45.59375 C 128.929688 45.640625 128.8125 45.660156 128.691406 45.660156 C 128.46875 45.660156 128.300781 45.597656 128.175781 45.480469 C 128.046875 45.359375 127.988281 45.210938 127.988281 45.03125 C 127.988281 44.910156 128.015625 44.800781 128.074219 44.707031 C 128.132812 44.613281 128.214844 44.539062 128.316406 44.492188 C 128.414062 44.445312 128.570312 44.398438 128.765625 44.359375 C 129.023438 44.3125 129.207031 44.265625 129.304688 44.21875 L 129.304688 44.164062 C 129.304688 44.058594 129.28125 43.976562 129.226562 43.9375 C 129.171875 43.890625 129.070312 43.867188 128.925781 43.867188 C 128.824219 43.867188 128.742188 43.890625 128.691406 43.929688 C 128.628906 43.96875 128.582031 44.042969 128.550781 44.136719 Z M 129.300781 44.59375 C 129.226562 44.621094 129.113281 44.648438 128.957031 44.679688 C 128.804688 44.714844 128.695312 44.746094 128.648438 44.78125 C 128.578125 44.835938 128.542969 44.902344 128.542969 44.984375 C 128.542969 45.0625 128.570312 45.128906 128.628906 45.183594 C 128.691406 45.242188 128.765625 45.269531 128.851562 45.269531 C 128.953125 45.269531 129.050781 45.238281 129.140625 45.171875 C 129.207031 45.117188 129.253906 45.054688 129.273438 44.984375 C 129.285156 44.933594 129.292969 44.839844 129.292969 44.707031 L 129.292969 44.59375 Z M 129.300781 44.59375 "
          fill-opacity="1" fillRule="nonzero"/>
    <path fill="#821238"
          d="M 131.375 43.492188 L 131.375 43.941406 L 130.992188 43.941406 L 130.992188 44.800781 C 130.992188 44.976562 131 45.078125 131.007812 45.101562 C 131.011719 45.128906 131.035156 45.15625 131.054688 45.175781 C 131.082031 45.195312 131.113281 45.203125 131.148438 45.203125 C 131.199219 45.203125 131.273438 45.183594 131.375 45.148438 L 131.421875 45.585938 C 131.292969 45.640625 131.140625 45.671875 130.980469 45.671875 C 130.878906 45.671875 130.785156 45.652344 130.707031 45.621094 C 130.625 45.585938 130.566406 45.539062 130.523438 45.484375 C 130.484375 45.433594 130.457031 45.359375 130.445312 45.265625 C 130.429688 45.195312 130.425781 45.070312 130.425781 44.867188 L 130.425781 43.9375 L 130.171875 43.9375 L 130.171875 43.488281 L 130.425781 43.488281 L 130.425781 43.0625 L 130.988281 42.734375 L 130.988281 43.488281 L 131.375 43.488281 Z M 131.375 43.492188 "
          fill-opacity="1" fillRule="nonzero"/>
    <path fill="#821238"
          d="M 133.164062 45.621094 L 133.164062 45.304688 C 133.082031 45.417969 132.980469 45.503906 132.855469 45.574219 C 132.726562 45.640625 132.59375 45.671875 132.453125 45.671875 C 132.3125 45.671875 132.183594 45.640625 132.070312 45.578125 C 131.957031 45.519531 131.878906 45.433594 131.824219 45.316406 C 131.769531 45.203125 131.75 45.050781 131.75 44.847656 L 131.75 43.5 L 132.3125 43.5 L 132.3125 44.480469 C 132.3125 44.78125 132.324219 44.960938 132.347656 45.03125 C 132.367188 45.097656 132.40625 45.148438 132.460938 45.191406 C 132.511719 45.230469 132.585938 45.25 132.667969 45.25 C 132.761719 45.25 132.847656 45.222656 132.921875 45.171875 C 132.996094 45.117188 133.050781 45.050781 133.074219 44.976562 C 133.101562 44.894531 133.117188 44.707031 133.117188 44.40625 L 133.117188 43.507812 L 133.679688 43.507812 L 133.679688 45.632812 L 133.164062 45.632812 Z M 133.164062 45.621094 "
          fill-opacity="1" fillRule="nonzero"/>
    <path fill="#821238"
          d="M 134.066406 45.007812 L 134.628906 44.921875 C 134.65625 45.03125 134.703125 45.117188 134.777344 45.171875 C 134.851562 45.222656 134.949219 45.257812 135.085938 45.257812 C 135.230469 45.257812 135.339844 45.230469 135.414062 45.175781 C 135.460938 45.136719 135.484375 45.089844 135.484375 45.03125 C 135.484375 44.988281 135.472656 44.949219 135.445312 44.921875 C 135.417969 44.894531 135.351562 44.867188 135.257812 44.847656 C 134.804688 44.746094 134.515625 44.652344 134.394531 44.574219 C 134.226562 44.460938 134.140625 44.296875 134.140625 44.097656 C 134.140625 43.917969 134.214844 43.753906 134.359375 43.632812 C 134.507812 43.507812 134.730469 43.445312 135.039062 43.445312 C 135.324219 43.445312 135.546875 43.492188 135.6875 43.585938 C 135.828125 43.679688 135.929688 43.820312 135.980469 44.011719 L 135.453125 44.109375 C 135.433594 44.03125 135.386719 43.964844 135.324219 43.921875 C 135.265625 43.882812 135.171875 43.855469 135.058594 43.855469 C 134.910156 43.855469 134.804688 43.875 134.742188 43.917969 C 134.703125 43.941406 134.675781 43.984375 134.675781 44.03125 C 134.675781 44.070312 134.695312 44.105469 134.730469 44.128906 C 134.78125 44.171875 134.957031 44.21875 135.25 44.292969 C 135.554688 44.359375 135.761719 44.445312 135.882812 44.539062 C 136 44.640625 136.054688 44.78125 136.054688 44.957031 C 136.054688 45.148438 135.976562 45.316406 135.8125 45.457031 C 135.652344 45.597656 135.414062 45.667969 135.089844 45.667969 C 134.804688 45.667969 134.574219 45.605469 134.402344 45.492188 C 134.234375 45.371094 134.121094 45.210938 134.066406 45.007812 Z M 134.066406 45.007812 "
          fill-opacity="1" fillRule="nonzero"/>
    <path fill="#821238"
          d="M 137.65625 45.621094 L 137.65625 42.6875 L 138.21875 42.6875 L 138.21875 43.75 C 138.390625 43.554688 138.597656 43.453125 138.832031 43.453125 C 139.09375 43.453125 139.308594 43.546875 139.476562 43.734375 C 139.644531 43.921875 139.730469 44.191406 139.730469 44.539062 C 139.730469 44.902344 139.644531 45.183594 139.46875 45.378906 C 139.296875 45.574219 139.085938 45.671875 138.839844 45.671875 C 138.71875 45.671875 138.597656 45.640625 138.480469 45.578125 C 138.359375 45.519531 138.257812 45.433594 138.171875 45.3125 L 138.171875 45.625 L 137.65625 45.625 Z M 138.210938 44.507812 C 138.210938 44.726562 138.246094 44.886719 138.316406 44.996094 C 138.417969 45.144531 138.546875 45.21875 138.707031 45.21875 C 138.832031 45.21875 138.933594 45.164062 139.019531 45.054688 C 139.109375 44.949219 139.15625 44.78125 139.15625 44.554688 C 139.15625 44.3125 139.109375 44.136719 139.019531 44.03125 C 138.933594 43.921875 138.820312 43.867188 138.6875 43.867188 C 138.550781 43.867188 138.4375 43.921875 138.351562 44.023438 C 138.265625 44.125 138.210938 44.292969 138.210938 44.507812 Z M 138.210938 44.507812 "
          fill-opacity="1" fillRule="nonzero"/>
    <path fill="#821238"
          d="M 139.910156 43.492188 L 140.507812 43.492188 L 141.015625 45.003906 L 141.511719 43.492188 L 142.09375 43.492188 L 141.34375 45.539062 L 141.210938 45.90625 C 141.164062 46.027344 141.117188 46.128906 141.070312 46.191406 C 141.023438 46.257812 140.976562 46.308594 140.914062 46.351562 C 140.855469 46.390625 140.789062 46.425781 140.703125 46.445312 C 140.613281 46.464844 140.519531 46.476562 140.414062 46.476562 C 140.304688 46.476562 140.199219 46.464844 140.097656 46.445312 L 140.050781 46 C 140.140625 46.023438 140.21875 46.027344 140.292969 46.027344 C 140.425781 46.027344 140.519531 45.988281 140.582031 45.914062 C 140.640625 45.839844 140.695312 45.742188 140.722656 45.621094 Z M 139.910156 43.492188 "
          fill-opacity="1" fillRule="nonzero"/>
    <path fill="#821238"
          d="M 143.59375 42.683594 L 144.183594 42.683594 L 144.183594 44.273438 C 144.183594 44.527344 144.191406 44.6875 144.203125 44.761719 C 144.230469 44.882812 144.289062 44.976562 144.382812 45.050781 C 144.476562 45.125 144.613281 45.15625 144.773438 45.15625 C 144.9375 45.15625 145.066406 45.125 145.152344 45.054688 C 145.242188 44.988281 145.289062 44.902344 145.308594 44.800781 C 145.328125 44.699219 145.335938 44.53125 145.335938 44.304688 L 145.335938 42.683594 L 145.921875 42.683594 L 145.921875 44.222656 C 145.921875 44.578125 145.910156 44.828125 145.875 44.96875 C 145.84375 45.117188 145.78125 45.238281 145.703125 45.339844 C 145.617188 45.4375 145.5 45.519531 145.359375 45.578125 C 145.21875 45.640625 145.027344 45.667969 144.796875 45.667969 C 144.519531 45.667969 144.308594 45.632812 144.164062 45.574219 C 144.015625 45.503906 143.902344 45.425781 143.820312 45.316406 C 143.734375 45.21875 143.679688 45.101562 143.652344 44.988281 C 143.613281 44.820312 143.59375 44.574219 143.59375 44.246094 Z M 143.59375 42.683594 "
          fill-opacity="1" fillRule="nonzero"/>
    <path fill="#821238"
          d="M 147.910156 44.539062 L 147.910156 44.042969 L 149.183594 44.042969 L 149.183594 45.210938 C 149.058594 45.332031 148.882812 45.4375 148.648438 45.527344 C 148.414062 45.621094 148.171875 45.660156 147.933594 45.660156 C 147.625 45.660156 147.355469 45.59375 147.128906 45.464844 C 146.902344 45.339844 146.726562 45.148438 146.613281 44.914062 C 146.5 44.675781 146.4375 44.414062 146.4375 44.128906 C 146.4375 43.820312 146.507812 43.554688 146.632812 43.320312 C 146.761719 43.085938 146.949219 42.898438 147.195312 42.777344 C 147.382812 42.675781 147.617188 42.628906 147.898438 42.628906 C 148.261719 42.628906 148.546875 42.703125 148.75 42.855469 C 148.957031 43.011719 149.082031 43.21875 149.144531 43.488281 L 148.554688 43.59375 C 148.515625 43.453125 148.433594 43.339844 148.320312 43.253906 C 148.207031 43.171875 148.066406 43.125 147.890625 43.125 C 147.628906 43.125 147.429688 43.207031 147.277344 43.371094 C 147.121094 43.535156 147.046875 43.78125 147.046875 44.105469 C 147.046875 44.453125 147.128906 44.714844 147.28125 44.886719 C 147.4375 45.0625 147.636719 45.148438 147.890625 45.148438 C 148.011719 45.148438 148.140625 45.125 148.265625 45.078125 C 148.394531 45.03125 148.5 44.96875 148.589844 44.902344 L 148.589844 44.539062 Z M 147.910156 44.539062 "
          fill-opacity="1" fillRule="nonzero"/>
    <path fill="#821238"
          d="M 151.609375 44.539062 L 152.183594 44.722656 C 152.097656 45.042969 151.949219 45.277344 151.742188 45.433594 C 151.535156 45.585938 151.28125 45.667969 150.964844 45.667969 C 150.578125 45.667969 150.253906 45.53125 150.007812 45.265625 C 149.761719 44.996094 149.632812 44.632812 149.632812 44.171875 C 149.632812 43.679688 149.761719 43.304688 150.007812 43.03125 C 150.261719 42.761719 150.589844 42.628906 151 42.628906 C 151.359375 42.628906 151.648438 42.734375 151.867188 42.945312 C 152.003906 43.070312 152.101562 43.253906 152.171875 43.488281 L 151.585938 43.628906 C 151.554688 43.472656 151.480469 43.351562 151.375 43.265625 C 151.265625 43.179688 151.132812 43.132812 150.972656 43.132812 C 150.757812 43.132812 150.578125 43.210938 150.441406 43.367188 C 150.308594 43.519531 150.242188 43.773438 150.242188 44.125 C 150.242188 44.492188 150.308594 44.761719 150.441406 44.914062 C 150.578125 45.070312 150.75 45.148438 150.964844 45.148438 C 151.117188 45.148438 151.257812 45.101562 151.375 45.003906 C 151.488281 44.902344 151.5625 44.753906 151.609375 44.539062 Z M 151.609375 44.539062 "
          fill-opacity="1" fillRule="nonzero"/>
    <path fill="#821238"
          d="M 155.015625 42.628906 L 155.464844 42.628906 L 155.464844 46.476562 L 155.015625 46.476562 Z M 155.015625 42.628906 "
          fill-opacity="1" fillRule="nonzero"/>
    <path fill="#821238"
          d="M 160.875 45.621094 L 160.230469 45.621094 L 159.976562 44.957031 L 158.804688 44.957031 L 158.5625 45.621094 L 157.933594 45.621094 L 159.074219 42.6875 L 159.695312 42.6875 Z M 159.78125 44.453125 L 159.378906 43.367188 L 158.984375 44.453125 Z M 159.78125 44.453125 "
          fill-opacity="1" fillRule="nonzero"/>
    <path fill="#821238"
          d="M 161.160156 43.492188 L 161.683594 43.492188 L 161.683594 43.808594 C 161.75 43.703125 161.84375 43.613281 161.957031 43.546875 C 162.070312 43.480469 162.207031 43.445312 162.347656 43.445312 C 162.59375 43.445312 162.800781 43.539062 162.976562 43.734375 C 163.148438 43.929688 163.230469 44.199219 163.230469 44.546875 C 163.230469 44.902344 163.144531 45.175781 162.96875 45.371094 C 162.796875 45.566406 162.585938 45.667969 162.339844 45.667969 C 162.21875 45.667969 162.117188 45.644531 162.019531 45.597656 C 161.925781 45.550781 161.824219 45.472656 161.71875 45.359375 L 161.71875 46.429688 L 161.15625 46.429688 L 161.15625 43.492188 Z M 161.71875 44.519531 C 161.71875 44.761719 161.765625 44.933594 161.859375 45.050781 C 161.953125 45.164062 162.066406 45.222656 162.207031 45.222656 C 162.339844 45.222656 162.445312 45.171875 162.535156 45.070312 C 162.621094 44.960938 162.660156 44.792969 162.660156 44.554688 C 162.660156 44.332031 162.613281 44.164062 162.527344 44.058594 C 162.441406 43.949219 162.328125 43.894531 162.191406 43.894531 C 162.058594 43.894531 161.9375 43.949219 161.851562 44.058594 C 161.765625 44.152344 161.71875 44.3125 161.71875 44.519531 Z M 161.71875 44.519531 "
          fill-opacity="1" fillRule="nonzero"/>
    <path fill="#821238"
          d="M 163.664062 43.492188 L 164.1875 43.492188 L 164.1875 43.808594 C 164.253906 43.703125 164.347656 43.613281 164.460938 43.546875 C 164.574219 43.480469 164.710938 43.445312 164.851562 43.445312 C 165.097656 43.445312 165.304688 43.539062 165.480469 43.734375 C 165.652344 43.929688 165.734375 44.199219 165.734375 44.546875 C 165.734375 44.902344 165.648438 45.175781 165.472656 45.371094 C 165.300781 45.566406 165.089844 45.667969 164.84375 45.667969 C 164.722656 45.667969 164.621094 45.644531 164.523438 45.597656 C 164.429688 45.550781 164.328125 45.472656 164.222656 45.359375 L 164.222656 46.429688 L 163.664062 46.429688 Z M 164.222656 44.519531 C 164.222656 44.761719 164.269531 44.933594 164.363281 45.050781 C 164.457031 45.164062 164.570312 45.222656 164.710938 45.222656 C 164.84375 45.222656 164.949219 45.171875 165.039062 45.070312 C 165.125 44.960938 165.164062 44.792969 165.164062 44.554688 C 165.164062 44.332031 165.117188 44.164062 165.03125 44.058594 C 164.945312 43.949219 164.832031 43.894531 164.695312 43.894531 C 164.5625 43.894531 164.441406 43.949219 164.355469 44.058594 C 164.261719 44.152344 164.222656 44.3125 164.222656 44.519531 Z M 164.222656 44.519531 "
          fill-opacity="1" fillRule="nonzero"/>
    <path fill="#821238"
          d="M 166.71875 45.621094 L 166.15625 45.621094 L 166.15625 43.492188 L 166.679688 43.492188 L 166.679688 43.796875 C 166.765625 43.65625 166.84375 43.5625 166.917969 43.515625 C 166.992188 43.464844 167.074219 43.445312 167.160156 43.445312 C 167.289062 43.445312 167.414062 43.480469 167.527344 43.554688 L 167.355469 44.042969 C 167.261719 43.984375 167.171875 43.949219 167.09375 43.949219 C 167.011719 43.949219 166.945312 43.96875 166.890625 44.015625 C 166.839844 44.058594 166.792969 44.136719 166.765625 44.25 C 166.730469 44.367188 166.71875 44.601562 166.71875 44.960938 Z M 166.71875 45.621094 "
          fill-opacity="1" fillRule="nonzero"/>
    <path fill="#821238"
          d="M 167.640625 44.527344 C 167.640625 44.339844 167.6875 44.15625 167.78125 43.984375 C 167.875 43.808594 168.003906 43.675781 168.171875 43.582031 C 168.339844 43.488281 168.527344 43.441406 168.734375 43.441406 C 169.054688 43.441406 169.316406 43.546875 169.523438 43.753906 C 169.730469 43.964844 169.832031 44.222656 169.832031 44.546875 C 169.832031 44.867188 169.730469 45.136719 169.523438 45.34375 C 169.316406 45.558594 169.054688 45.660156 168.742188 45.660156 C 168.546875 45.660156 168.359375 45.613281 168.183594 45.527344 C 168.011719 45.4375 167.875 45.3125 167.78125 45.136719 C 167.6875 44.976562 167.640625 44.769531 167.640625 44.527344 Z M 168.21875 44.554688 C 168.21875 44.761719 168.265625 44.929688 168.367188 45.035156 C 168.464844 45.148438 168.585938 45.203125 168.734375 45.203125 C 168.882812 45.203125 169 45.148438 169.101562 45.035156 C 169.203125 44.921875 169.25 44.761719 169.25 44.546875 C 169.25 44.339844 169.203125 44.175781 169.101562 44.0625 C 169 43.949219 168.882812 43.894531 168.734375 43.894531 C 168.585938 43.894531 168.464844 43.949219 168.367188 44.0625 C 168.265625 44.175781 168.21875 44.34375 168.21875 44.554688 Z M 168.21875 44.554688 "
          fill-opacity="1" fillRule="nonzero"/>
    <path fill="#821238"
          d="M 170.855469 45.621094 L 170 43.492188 L 170.589844 43.492188 L 170.988281 44.578125 L 171.105469 44.941406 C 171.136719 44.847656 171.152344 44.789062 171.164062 44.761719 C 171.183594 44.699219 171.203125 44.640625 171.222656 44.578125 L 171.625 43.492188 L 172.203125 43.492188 L 171.359375 45.621094 Z M 170.855469 45.621094 "
          fill-opacity="1" fillRule="nonzero"/>
    <path fill="#821238"
          d="M 173.773438 44.941406 L 174.335938 45.035156 C 174.265625 45.242188 174.148438 45.398438 173.996094 45.503906 C 173.84375 45.613281 173.648438 45.667969 173.414062 45.667969 C 173.046875 45.667969 172.769531 45.546875 172.597656 45.304688 C 172.457031 45.109375 172.390625 44.867188 172.390625 44.574219 C 172.390625 44.21875 172.484375 43.941406 172.664062 43.75 C 172.84375 43.546875 173.078125 43.445312 173.359375 43.445312 C 173.675781 43.445312 173.921875 43.554688 174.109375 43.761719 C 174.289062 43.96875 174.378906 44.292969 174.371094 44.722656 L 172.964844 44.722656 C 172.972656 44.886719 173.011719 45.015625 173.097656 45.109375 C 173.1875 45.203125 173.292969 45.25 173.421875 45.25 C 173.507812 45.25 173.582031 45.222656 173.640625 45.175781 C 173.703125 45.125 173.75 45.050781 173.773438 44.941406 Z M 173.808594 44.371094 C 173.800781 44.210938 173.761719 44.082031 173.679688 44.003906 C 173.601562 43.917969 173.507812 43.875 173.386719 43.875 C 173.265625 43.875 173.164062 43.921875 173.085938 44.011719 C 173.003906 44.097656 172.964844 44.21875 172.964844 44.371094 Z M 173.808594 44.371094 "
          fill-opacity="1" fillRule="nonzero"/>
    <path fill="#821238"
          d="M 176.769531 45.621094 L 176.246094 45.621094 L 176.246094 45.304688 C 176.160156 45.425781 176.058594 45.519531 175.9375 45.574219 C 175.816406 45.632812 175.703125 45.660156 175.582031 45.660156 C 175.339844 45.660156 175.128906 45.558594 174.953125 45.363281 C 174.777344 45.171875 174.691406 44.894531 174.691406 44.539062 C 174.691406 44.175781 174.777344 43.902344 174.945312 43.722656 C 175.113281 43.539062 175.328125 43.441406 175.589844 43.441406 C 175.824219 43.441406 176.03125 43.539062 176.207031 43.734375 L 176.207031 42.675781 L 176.769531 42.675781 Z M 175.269531 44.507812 C 175.269531 44.734375 175.300781 44.894531 175.363281 44.996094 C 175.457031 45.144531 175.574219 45.21875 175.742188 45.21875 C 175.871094 45.21875 175.984375 45.164062 176.070312 45.050781 C 176.164062 44.941406 176.207031 44.773438 176.207031 44.554688 C 176.207031 44.3125 176.160156 44.128906 176.070312 44.023438 C 175.984375 43.917969 175.871094 43.863281 175.738281 43.863281 C 175.601562 43.863281 175.488281 43.917969 175.402344 44.023438 C 175.316406 44.136719 175.269531 44.296875 175.269531 44.507812 Z M 175.269531 44.507812 "
          fill-opacity="1" fillRule="nonzero"/>
    <path fill="#821238"
          d="M 178.433594 45.621094 L 178.433594 42.6875 L 178.996094 42.6875 L 178.996094 43.75 C 179.171875 43.554688 179.378906 43.453125 179.613281 43.453125 C 179.875 43.453125 180.089844 43.546875 180.253906 43.734375 C 180.421875 43.921875 180.511719 44.191406 180.511719 44.539062 C 180.511719 44.902344 180.421875 45.183594 180.25 45.378906 C 180.074219 45.574219 179.867188 45.671875 179.621094 45.671875 C 179.5 45.671875 179.378906 45.640625 179.257812 45.578125 C 179.136719 45.519531 179.039062 45.433594 178.949219 45.3125 L 178.949219 45.625 L 178.433594 45.625 Z M 178.992188 44.507812 C 178.992188 44.726562 179.023438 44.886719 179.097656 44.996094 C 179.199219 45.144531 179.324219 45.21875 179.484375 45.21875 C 179.613281 45.21875 179.714844 45.164062 179.800781 45.054688 C 179.886719 44.949219 179.933594 44.78125 179.933594 44.554688 C 179.933594 44.3125 179.886719 44.136719 179.800781 44.03125 C 179.714844 43.921875 179.601562 43.867188 179.464844 43.867188 C 179.332031 43.867188 179.21875 43.921875 179.132812 44.023438 C 179.042969 44.125 178.992188 44.292969 178.992188 44.507812 Z M 178.992188 44.507812 "
          fill-opacity="1" fillRule="nonzero"/>
    <path fill="#821238"
          d="M 180.691406 43.492188 L 181.285156 43.492188 L 181.796875 45.003906 L 182.292969 43.492188 L 182.875 43.492188 L 182.125 45.539062 L 181.988281 45.90625 C 181.941406 46.027344 181.894531 46.128906 181.847656 46.191406 C 181.800781 46.257812 181.753906 46.308594 181.695312 46.351562 C 181.636719 46.390625 181.566406 46.425781 181.480469 46.445312 C 181.394531 46.464844 181.300781 46.476562 181.191406 46.476562 C 181.085938 46.476562 180.980469 46.464844 180.878906 46.445312 L 180.832031 46 C 180.917969 46.023438 181 46.027344 181.074219 46.027344 C 181.199219 46.027344 181.300781 45.988281 181.359375 45.914062 C 181.421875 45.839844 181.472656 45.742188 181.5 45.621094 Z M 180.691406 43.492188 "
          fill-opacity="1" fillRule="nonzero"/>
    <path fill="#821238"
          d="M 186.863281 45.621094 L 186.222656 45.621094 L 185.964844 44.957031 L 184.796875 44.957031 L 184.554688 45.621094 L 183.925781 45.621094 L 185.0625 42.6875 L 185.6875 42.6875 Z M 185.773438 44.453125 L 185.371094 43.367188 L 184.976562 44.453125 Z M 185.773438 44.453125 "
          fill-opacity="1" fillRule="nonzero"/>
    <path fill="#821238"
          d="M 187.160156 42.6875 L 187.746094 42.6875 L 187.746094 45.621094 L 187.160156 45.621094 Z M 187.160156 42.6875 "
          fill-opacity="1" fillRule="nonzero"/>
    <path fill="#821238"
          d="M 190.191406 44.539062 L 190.765625 44.722656 C 190.679688 45.042969 190.53125 45.277344 190.324219 45.433594 C 190.117188 45.585938 189.863281 45.667969 189.546875 45.667969 C 189.160156 45.667969 188.839844 45.53125 188.589844 45.265625 C 188.34375 44.996094 188.214844 44.632812 188.214844 44.171875 C 188.214844 43.679688 188.34375 43.304688 188.589844 43.03125 C 188.84375 42.761719 189.171875 42.628906 189.582031 42.628906 C 189.945312 42.628906 190.230469 42.734375 190.453125 42.945312 C 190.585938 43.070312 190.6875 43.253906 190.753906 43.488281 L 190.171875 43.628906 C 190.136719 43.472656 190.0625 43.351562 189.957031 43.265625 C 189.851562 43.179688 189.714844 43.132812 189.554688 43.132812 C 189.339844 43.132812 189.160156 43.210938 189.027344 43.367188 C 188.890625 43.519531 188.824219 43.773438 188.824219 44.125 C 188.824219 44.492188 188.890625 44.761719 189.027344 44.914062 C 189.160156 45.070312 189.335938 45.148438 189.546875 45.148438 C 189.703125 45.148438 189.84375 45.101562 189.957031 45.003906 C 190.070312 44.902344 190.136719 44.753906 190.191406 44.539062 Z M 190.191406 44.539062 "
          fill-opacity="1" fillRule="nonzero"/>
    <path fill="#821238"
          d="M 191.933594 45.621094 L 191.933594 43.183594 L 191.0625 43.183594 L 191.0625 42.6875 L 193.390625 42.6875 L 193.390625 43.183594 L 192.519531 43.183594 L 192.519531 45.621094 Z M 191.933594 45.621094 "
          fill-opacity="1" fillRule="nonzero"/>
    <path fill="#821238"
          d="M 193.765625 45.621094 L 193.765625 42.6875 L 195.9375 42.6875 L 195.9375 43.183594 L 194.355469 43.183594 L 194.355469 43.835938 L 195.828125 43.835938 L 195.828125 44.332031 L 194.355469 44.332031 L 194.355469 45.128906 L 195.988281 45.128906 L 195.988281 45.625 L 193.765625 45.625 Z M 193.765625 45.621094 "
          fill-opacity="1" fillRule="nonzero"/>
    <path fill="#821238"
          d="M 38.40625 27.042969 L 196.71875 27.042969 L 196.71875 27.25 L 38.40625 27.25 Z M 38.40625 27.042969 "
          fill-opacity="1" fillRule="nonzero"/>
</svg>