<svg xmlns="http://www.w3.org/2000/svg" width="865.76" height="682.89" viewBox="0 0 865.76 682.89">
    <path d="M619.34,107.62A342.49,342.49,0,0,0,402.25,30.45c-189.93,0-343.89,154-343.89,343.89a345.89,345.89,0,0,0,6.79,68.36Z" fill="#017efc" data-primary="true"></path>
    <path d="M641.62,95,80,452A343.83,343.83,0,0,0,162.3,588L751,365.1q.46-9,.47-18.15A343,343,0,0,0,641.62,95Z" fill="#017efc" data-primary="true"></path>
    <path d="M237.22,563.6a342.63,342.63,0,0,0,230.67,88.84c171.2,0,313.18-125.1,339.51-288.88C679.87,408,352.88,522.2,237.22,563.6Z" fill="#017efc" data-primary="true"></path>
    <g opacity="0.8" style="isolation:isolate">
        <path d="M619.34,107.62A342.49,342.49,0,0,0,402.25,30.45c-189.93,0-343.89,154-343.89,343.89a345.89,345.89,0,0,0,6.79,68.36Z" fill="#fff"></path>
        <path d="M641.62,95,80,452A343.83,343.83,0,0,0,162.3,588L751,365.1q.46-9,.47-18.15A343,343,0,0,0,641.62,95Z" fill="#fff"></path>
        <path d="M237.22,563.6a342.63,342.63,0,0,0,230.67,88.84c171.2,0,313.18-125.1,339.51-288.88C679.87,408,352.88,522.2,237.22,563.6Z" fill="#fff"></path>
    </g>
    <polygon points="401.38 538.65 393.47 600.31 486.16 600.31 473.88 536.74 401.38 538.65" fill="#ffc931"></polygon>
    <path d="M401.38,538.65l-2.47,20.09s37.32,14.42,55.21,41.74h32l-12.28-63.74Z" fill="#fff" opacity="0.2"></path>
    <path d="M270.36,268H598.28a36.36,36.36,0,0,1,36.36,36.36V500.55a0,0,0,0,1,0,0H234a0,0,0,0,1,0,0V304.38A36.36,36.36,0,0,1,270.36,268Z" fill="#ffc931"></path>
    <path d="M616.57,292.88V475.69a7.59,7.59,0,0,1-7.58,7.58H261.21a7.58,7.58,0,0,1-7.57-7.58V292.88a7.57,7.57,0,0,1,7.57-7.57H609a7.56,7.56,0,0,1,7.58,7.57Z" fill="#ffe18e"></path>
    <path d="M616.57,292.88v43.95l-126,146.44H445.31l170-194.65A7.61,7.61,0,0,1,616.57,292.88Z" fill="#fff" opacity="0.2"></path>
    <polygon points="534.4 285.31 350.13 483.27 262.54 483.27 434.11 285.31 534.4 285.31" fill="#fff" opacity="0.2"></polygon>
    <path d="M404.66,392.2c2.33-3.35,13.58-14,31.23-23.63,0,0,12.57,3.15,41.25-3.66l.37,14.5a5.71,5.71,0,0,1-4.41,5.71c-12.05,2.82-45.48,10.08-67.29,9.35A1.45,1.45,0,0,1,404.66,392.2Z" fill="#017efc" data-primary="true"></path>
    <path d="M234,500.55H633.85a0,0,0,0,1,0,0v0a48.7,48.7,0,0,1-48.7,48.7H282.7a48.7,48.7,0,0,1-48.7-48.7v0A0,0,0,0,1,234,500.55Z" fill="#ffbc00"></path>
    <path d="M457,176l18.21.13s7.07-12.57,11-21.21l-33,13.36Z" fill="#f19e9d"></path>
    <path d="M498.19,125.76H516L544.3,129s36.92,0,50.27,44c0,0,3.14,11.78,2.36,21.21,0,0-18.07-13.35-36.14,7.86v3.14L533.3,220.89l-11.79-2.36-46.34-42.42-7.86-30.63Z" fill="#017efc" data-primary="true"></path>
    <path d="M516,121.12v14.93s7.07,11.78,19.63,7.07c0,0,9.43-4.71,8.65-14.14l-7-19Z" fill="#f1c4b3"></path>
    <path d="M516,121.12v11s8.17-2.69,11.55-10.77Z" fill="#f19e9d"></path>
    <path d="M491.16,87.09s-1.85-2.1-6.57,4.18c0,0-6.28,7.07-1.57,17.28,0,0-37.66,40.8-35.55,60.68a7.74,7.74,0,0,0,7.65,6.91c6.5.08,18.42-2.83,31-21.24l16.16-39.27s-3.19-2.75-4.37-12.57V89.74A31.37,31.37,0,0,1,491.16,87.09Z" fill="#f1c4b3"></path>
    <path d="M495.88,89.24s-7.27,4.62-4.76,9.1a3,3,0,0,1,.39,1.81c-.52,4-1.66,18.51,9.73,14.19A22.74,22.74,0,0,1,498,103.06V89.74Z" fill="#f19e9d"></path>
    <path d="M503.45,140.76s11,11,27.49,9.43C530.94,150.19,509.73,161.19,503.45,140.76Z" fill="#fff" opacity="0.2"></path>
    <path d="M561.58,161.19s-6.29,17.28-1.57,34.56C560,195.75,560,177.68,561.58,161.19Z" fill="#fff" opacity="0.2"></path>
    <path d="M504.23,286.88l14.93,48.7,63.63-17.28S631.5,302.66,630,267.18a38.58,38.58,0,0,0-12.34-26.29c-5.81-5.47-14.47-11.33-25.45-12.14L575,238.1s3.86,15-15.78,23.64Z" fill="#808080" data-secondary="true"></path>
    <path d="M478.31,370.93H421l-18.85-82.48S378.38,217,430.7,214.63L575,238.1s3.86,15-15.78,23.64l-50.11,23s-33.16-2.54-40.23-3.32Z" fill="#808080" data-secondary="true"></path>
    <path d="M478.31,370.93H421l-18.85-82.48S378.38,217,430.7,214.63L575,238.1s3.86,15-15.78,23.64l-50.11,23s-33.16-2.54-40.23-3.32Z" opacity="0.2"></path>
    <path d="M496.38,292.38l8.56-3.89,13.21,43.72-12.35,5.73S495.59,326.15,496.38,292.38Z" fill="#f1c4b3"></path>
    <path d="M496.4,369.82c2.32-3.36,6.64-12,9.4-31.88,0,0-10.21-14.14-9.42-45.56l-13.7,4.76a5.72,5.72,0,0,0-3.8,6.14c1.61,12.27,6.61,46.11,15,66.27A1.45,1.45,0,0,0,496.4,369.82Z" fill="#017efc" data-primary="true"></path>
    <line x1="510.12" y1="301.18" x2="513.35" y2="299.82" fill="none" stroke="#fff" stroke-linecap="round" stroke-linejoin="round"></line>
    <path d="M519.67,297.15l56.05-23.63s22.5-8.6,20.89-37.36" fill="none" stroke="#fff" stroke-linecap="round" stroke-linejoin="round" stroke-dasharray="6.87 6.87"></path>
    <path d="M596.31,232.74c-.13-1.13-.3-2.29-.5-3.47" fill="none" stroke="#fff" stroke-linecap="round" stroke-linejoin="round"></path>
    <path d="M460.41,371s-18.24-110-1.74-107.66c0,0,47.92,10.21,73.84,9.43" fill="none" stroke="#fff" stroke-linecap="round" stroke-linejoin="round" stroke-dasharray="7"></path>
    <path d="M339.05,600.31H531.94a16.29,16.29,0,0,1,16.29,16.29v2.57a0,0,0,0,1,0,0H322.77a0,0,0,0,1,0,0V616.6a16.29,16.29,0,0,1,16.29-16.29Z" fill="#ffbc00"></path>
    <polygon points="344.76 300.23 265.42 612.1 574.93 524.9 344.76 300.23" fill="none" stroke="#fff" stroke-miterlimit="10"></polygon>
    <polygon points="419.39 286.88 427.08 293.33 453.17 263.31 445.31 257.02 419.39 286.88" fill="#017efc" data-primary="true"></polygon>
    <polygon points="354.75 264.14 364.04 260.33 349.55 223.29 340.34 227.33 354.75 264.14" fill="#017efc" data-primary="true"></polygon>
    <polygon points="308.61 354.13 313.59 345.42 279.41 325.08 274.63 333.93 308.61 354.13" fill="#017efc" data-primary="true"></polygon>
    <rect x="223.79" y="232.67" width="4.71" height="18.85" fill="#017efc" data-primary="true"></rect>
    <rect x="244.21" y="275.88" width="18.85" height="4.71" transform="translate(-67.76 82.14) rotate(-16.26)" fill="#017efc" data-primary="true"></rect>
    <rect x="175.87" y="258.6" width="4.71" height="18.85" transform="translate(-105.94 116.87) rotate(-28.37)" fill="#017efc" data-primary="true"></rect>
    <polygon points="208.86 263.31 247.35 416.49 95.74 375.64 208.86 263.31" fill="none" stroke="#fff" stroke-miterlimit="10"></polygon>
    <path d="M497.95,72.42H538.8a0,0,0,0,1,0,0v30.64a20.42,20.42,0,0,1-20.42,20.42h0a20.42,20.42,0,0,1-20.42-20.42V72.42A0,0,0,0,1,497.95,72.42Z" fill="#f1c4b3"></path>
    <ellipse cx="542.72" cy="105.81" rx="7.07" ry="7.46" fill="#f1c4b3"></ellipse>
    <path d="M531.73,80.27C515.23,90.49,498,85,498,85v4.75s-10.21-2.4-9.43-7.11c0,0,4.71-8.64,12.57-12.57l-2.36-3.14s14.93-11.78,30.64-3.14L527,57.49l7.86,6.29s38,5.75,11.78,36.13c0,0-3.36-3.48-8-.16,0,0-6.95-7.69-6.95-17.12Z" fill="#51261e"></path>
    <path d="M488.52,82.63S505.8,65.35,516.8,70.85c0,0-2.36-3.93-4.71-3.93,0,0,7.85-3.14,17.28,3.93,0,0-1.57-3.93-3.93-5.5,0,0,5.5-2.36,9.43,4.71,0,0,12.57-1.57,13.35,17.28,0,0-4.71-3.92-6.28-3.92a25.76,25.76,0,0,1,4.71,16.49s-2.58-3.48-8-.16c0,0-8.52-9.26-6.95-19.48,0,0-15.71,10.22-33.78,4.72v4.75S487.74,87.34,488.52,82.63Z" opacity="0.2"></path>
    <path d="M498,85v4.75s14.14,3.89,25.14-2.4c0,0,6.84,9.09,15.59,12.41,0,0-8.52-9.26-6.95-19.48C531.73,80.27,519.94,89.7,498,85Z" fill="#f19e9d"></path>
    <path d="M527,239l-5.5-20.43,11.79,2.36,27.49-15.71V202s14.14-20.43,36.14-7.86c0,0,7.85,45.56-23.57,44Z" fill="#f1c4b3"></path>
    <path d="M560.79,205.18c5.68-1.71,13-1.4,17.28,3.14-5.12-3.32-11.37-3.42-17.28-3.14Z" fill="#f19e9d"></path>
    <polygon points="425.68 172.97 420.18 176.9 508.16 180.83 523.87 249.96 552.15 251.53 551.37 244.46 527.8 241.31 512.09 176.11 425.68 172.97" fill="#ffe18e"></polygon>
    <polygon points="420.18 176.9 439.82 246.81 523.87 249.96 508.16 180.83 420.18 176.9" fill="#ffc931"></polygon>
    <ellipse cx="468.88" cy="215.39" rx="11" ry="14.14" transform="translate(208.99 661.15) rotate(-84.43)" fill="none" stroke="#fff" stroke-miterlimit="10"></ellipse>
    <polygon points="365.97 279.81 286.63 590.89 595.36 502.9 365.97 279.81" fill="#017efc" data-primary="true"></polygon>
    <polygon points="365.97 279.81 286.63 590.89 595.36 502.9 365.97 279.81" fill="#fff" opacity="0.4"></polygon>
    <polygon points="569.43 495.83 373.83 304.16 305.49 570.46 569.43 495.83" fill="#017efc" data-primary="true"></polygon>
    <path d="M394.86,386l8.64-2a9.15,9.15,0,0,1,11,6.73l15.19,61.95a12.65,12.65,0,0,1-9.5,15.36h0a12.66,12.66,0,0,1-15-9l-17-61.69A9.14,9.14,0,0,1,394.86,386Z" fill="#fff" opacity="0.4"></path>
    <path d="M404.29,383.68l8.64-2a9.15,9.15,0,0,1,11,6.72l15.19,61.95a12.66,12.66,0,0,1-9.5,15.36h0a12.65,12.65,0,0,1-15-9l-17-61.68A9.15,9.15,0,0,1,404.29,383.68Z" fill="none" stroke="#fff" stroke-miterlimit="10"></path>
    <circle cx="426.07" cy="492.3" r="15.32" fill="#fff" opacity="0.4"></circle>
    <circle cx="436.28" cy="488.37" r="15.32" fill="none" stroke="#fff" stroke-miterlimit="10"></circle>
    <polygon points="110.67 370.15 260.71 413.35 223.79 261.74 110.67 370.15" fill="#017efc" data-primary="true"></polygon>
    <polygon points="110.67 370.15 260.71 413.35 223.79 261.74 110.67 370.15" fill="#fff" opacity="0.4"></polygon>
    <polygon points="123.24 366.22 253.34 404.86 219.86 272.74 123.24 366.22" fill="#017efc" data-primary="true"></polygon>
    <path d="M208.81,313.73l4,1.38a4.34,4.34,0,0,1,2.7,5.49l-9.65,28.77a6,6,0,0,1-7.73,3.76h0a6,6,0,0,1-3.74-7.42l8.84-29.14A4.35,4.35,0,0,1,208.81,313.73Z" fill="#fff" opacity="0.4"></path>
    <path d="M212.88,315.25l4,1.28a4.36,4.36,0,0,1,2.84,5.43l-9,29a6,6,0,0,1-7.64,3.94h0a6,6,0,0,1-3.92-7.33l8.14-29.34A4.35,4.35,0,0,1,212.88,315.25Z" fill="none" stroke="#fff" stroke-miterlimit="10"></path>
    <circle cx="194.7" cy="365.45" r="7.29" fill="#fff" opacity="0.4"></circle>
    <circle cx="199.89" cy="365.77" r="7.29" fill="none" stroke="#fff" stroke-miterlimit="10"></circle>
    <path d="M280.29,151.51l-12.46-26.58c-2.42-5.19-4.07-8.94-5-11.25q-1.85-4.74-.4-8.35a9.16,9.16,0,0,1,5.5-5.19q4.89-1.92,7.87.83t5.46,9.13a79.85,79.85,0,0,1,2.58,7.79l8.5,29.05a23.53,23.53,0,0,1,1.29,8.36,4.8,4.8,0,0,1-3.29,4.36,4.61,4.61,0,0,1-5.28-.92A27.82,27.82,0,0,1,280.29,151.51Zm20.94,35a9.63,9.63,0,0,1-7,.11,8.43,8.43,0,0,1-5-5.28,9.07,9.07,0,0,1,5.24-11.82,9,9,0,0,1,7.09.09,8.71,8.71,0,0,1,4.88,5,8.56,8.56,0,0,1-.13,7.27A9.35,9.35,0,0,1,301.23,186.54Z" fill="#808080" data-secondary="true"></path>
    <path d="M653.86,334.87a9.64,9.64,0,0,1-4.7-5.12,8.45,8.45,0,0,1,.61-7.28,8.77,8.77,0,0,1,5.31-4.53,8.87,8.87,0,0,1,7,.6,9.05,9.05,0,0,1,4.63,5.36,8.7,8.7,0,0,1-.51,7,8.59,8.59,0,0,1-5.52,4.73A9.41,9.41,0,0,1,653.86,334.87ZM666.16,296l11.62-27q3.4-7.86,5.11-11.19c1.54-3,3.54-5,6-5.83a9.14,9.14,0,0,1,7.53.66c3.12,1.6,4.65,3.74,4.6,6.44s-1.12,6.08-3.2,10.15a79.85,79.85,0,0,1-4.12,7.09L677.59,302a23.68,23.68,0,0,1-5.4,6.51,4.78,4.78,0,0,1-5.44.44,4.63,4.63,0,0,1-2.82-4.57A27.92,27.92,0,0,1,666.16,296Z" fill="#808080" data-secondary="true"></path>
    <path d="M633.92,169.37a8.06,8.06,0,0,1-3.91-4.26,7,7,0,0,1,.51-6.05,7.19,7.19,0,0,1,4.44-3.77,7.53,7.53,0,0,1,5.88.56A7.45,7.45,0,0,1,644.13,166a7.1,7.1,0,0,1-4.59,3.94A7.7,7.7,0,0,1,633.92,169.37Zm3.31-60.87a18.46,18.46,0,0,1,7.22-7.29A23.84,23.84,0,0,1,656.24,98a28.46,28.46,0,0,1,13.83,3.43,29.61,29.61,0,0,1,10.34,8.35,21.05,21.05,0,0,1,4.38,10.55,18.16,18.16,0,0,1-1.9,10.45,15.72,15.72,0,0,1-5,5.94,23.42,23.42,0,0,1-6.27,3.09q-3.23,1-11.33,3.13a36.19,36.19,0,0,0-3.73,1.2,11.22,11.22,0,0,0-2.37,1.24,11,11,0,0,0-1.61,1.4c-.46.51-1.24,1.41-2.33,2.72q-3.27,4.26-7.79,1.95a6.23,6.23,0,0,1-3.17-3.57,6.79,6.79,0,0,1,.74-5.39,17.94,17.94,0,0,1,10.16-9.26A79.77,79.77,0,0,1,658,131q4.18-1,6.14-1.68a14.41,14.41,0,0,0,3.64-1.76,7.76,7.76,0,0,0,2.64-3,9,9,0,0,0,.44-7.48,11,11,0,0,0-5.67-6c-3.32-1.7-6.18-2.11-8.61-1.24a22.57,22.57,0,0,0-7.77,5.35c-2.77,2.89-5.58,3.59-8.45,2.13a6.46,6.46,0,0,1-3.35-4A6.11,6.11,0,0,1,637.23,108.5Z" fill="#017efc" data-primary="true"></path>
    <path d="M387,109.91a11.68,11.68,0,0,1-3-5.77,15.22,15.22,0,0,1,.32-7.77A18.09,18.09,0,0,1,389,88.63,18.82,18.82,0,0,1,396.06,84a13.43,13.43,0,0,1,7.25-.64,11.48,11.48,0,0,1,6,3.15,10.07,10.07,0,0,1,2.65,4.18,14.91,14.91,0,0,1,.68,4.4q0,2.14-.27,7.48a22.45,22.45,0,0,0,0,2.49,7.05,7.05,0,0,0,.3,1.68,6.38,6.38,0,0,0,.55,1.24c.21.38.61,1,1.2,1.94,1.31,1.87,1.2,3.57-.31,5.1a3.94,3.94,0,0,1-2.77,1.25,4.32,4.32,0,0,1-3.13-1.48,11.5,11.5,0,0,1-3.68-7.95,49.93,49.93,0,0,1,.09-5.18c.11-1.83.16-3.18.16-4a9.15,9.15,0,0,0-.38-2.55,4.9,4.9,0,0,0-1.3-2.17,5.7,5.7,0,0,0-4.46-1.7,7,7,0,0,0-4.76,2.28c-1.66,1.69-2.46,3.36-2.4,5a14.22,14.22,0,0,0,1.76,5.74c1.22,2.24,1.11,4.08-.33,5.54a4.07,4.07,0,0,1-3,1.28A3.93,3.93,0,0,1,387,109.91Zm36.33,13.67a5.11,5.11,0,0,1-3.33,1.56,4.47,4.47,0,0,1-3.58-1.47,4.57,4.57,0,0,1-1.44-3.42,4.85,4.85,0,0,1,1.46-3.46,4.63,4.63,0,0,1,3.4-1.46,4.67,4.67,0,0,1,3.42,1.41,4.49,4.49,0,0,1,1.51,3.54A4.91,4.91,0,0,1,423.33,123.58Z" fill="#017efc" data-primary="true"></path>
    <circle cx="503.84" cy="100.31" r="2.36" fill="#51261e"></circle>
    <circle cx="521.12" cy="98.74" r="2.36" fill="#51261e"></circle>
    <circle cx="527.41" cy="106.59" r="4.71" fill="#f19e9d"></circle>
    <path d="M500.7,94s4.71.79,7.07-2.35" fill="none" stroke="#51261e" stroke-linecap="round" stroke-linejoin="round"></path>
    <path d="M519.55,90.88s1.57,3.14,6.28,2.36" fill="none" stroke="#51261e" stroke-linecap="round" stroke-linejoin="round"></path>
    <path d="M508.55,116.8a2.23,2.23,0,0,0,3,2.23,4.56,4.56,0,0,0,2.1-1.09,2.62,2.62,0,0,1,2.79-.35s3.93.78,3.93-1.57c0,0,.45-2.71-2.75-4.36a6.52,6.52,0,0,0-8.06,1.63A4.22,4.22,0,0,0,508.55,116.8Z" fill="#fff"></path>
    <path d="M509.42,101c-.66,1.55-1.45,4.79-.8,6.46a2.36,2.36,0,0,0,2.8,1.28h0A2.28,2.28,0,0,0,513,106a19,19,0,0,0-1.69-5.22A1.09,1.09,0,0,0,509.42,101Z" fill="#f19e9d"></path>
    <polygon points="217.49 574.34 217.38 575.16 217.25 576.13 217.09 577.29 216.44 582.12 216.37 582.64 215.68 587.7 215.6 588.23 212.88 608.28 212.8 608.83 211.39 619.17 182.33 619.17 181.93 616.23 181.86 615.7 181.64 614.12 181.57 613.6 180.36 604.69 180.28 604.07 177.56 584.12 177.48 583.49 176.99 579.89 176.23 574.34 217.49 574.34" fill="#747bff"></polygon>
    <g opacity="0.2">
        <polygon points="217.49 574.34 217.38 575.16 217.25 576.13 217.09 577.29 216.31 577.34 215.49 577.39 203.43 578.17 202.6 578.23 176.99 579.89 176.23 574.34 217.49 574.34"></polygon>
    </g>
    <path d="M221.17,574.58a286,286,0,0,1-48.62,0v-4.41h48.62Z" fill="#747bff"></path>
    <path d="M210.1,518.13c-1.52,1.82-2.61,8.56-5.52,9.64-2,.75-3.06-2.14.82-5.79a15.1,15.1,0,0,0,4.08-6.86,57.19,57.19,0,0,0-2.73-8.8c-2.24,2.07-5.82,5-6.84,3.6s2.22-6.34,4.08-8.8a15.14,15.14,0,0,0-2.9-3.23A9.06,9.06,0,0,0,195,495.7a8.13,8.13,0,0,0-4.65,1.7c2,4,4.93,10.62,2.87,12.15-1.91,1.43-4.68-4.09-6.41-8.21A35.84,35.84,0,0,0,182,515.25a8.69,8.69,0,0,0,2.73,3c3.77,2.72,8.26,8.21,6,9.42s-4.59-2-6.26-4.87a11.54,11.54,0,0,0-2.87-3.46c0,.87,0,1.73,0,2.55.59,15.66,15.89,15.66,15.89,15.66S212.81,534,210.1,518.13Zm-19.25.31c-1.52,0-3.93-2.84-5.06-4.41s-.22-2.65.86-2.35h0C188.22,512.15,192.81,518.46,190.85,518.44Zm13.34-3.75h.05c1.08-.31,2,.42,1.47,1.8-.67,1.82-1.56,2.54-2.92,1.86C201.94,517.91,202.67,515.15,204.19,514.69Z" fill="#ffc931"></path>
    <path d="M195.84,514.21c1.35,6.86.91,13.93.4,20.86-.54,7.39-1.28,14.8-1,22.22a62.12,62.12,0,0,0,1.68,12.51c.08.34.62.2.53-.15-3.63-14.71-.28-29.67-.17-44.54a55.32,55.32,0,0,0-.9-11.05c-.07-.35-.61-.2-.54.15Z" fill="#808080" data-secondary="true"></path>
    <path d="M189,537.57c-.15,2.37,2.93,8.45,1.22,11-1.17,1.78-3.73.08-2.75-5.15a15.07,15.07,0,0,0-.75-8,55.85,55.85,0,0,0-7.4-5.5c-.58,3-1.75,7.47-3.4,6.94s-1.94-6.42-1.89-9.52a15.85,15.85,0,0,0-4.25-.9,9.07,9.07,0,0,0-6.23,1.86,8,8,0,0,0-2.76,4.12c3.94,2,10.24,5.66,9.48,8.11-.7,2.28-6.19-.55-10-2.85a35.92,35.92,0,0,0,4.33,14.06,8.86,8.86,0,0,0,3.95.78c4.65,0,11.51,1.75,10.42,4s-4.89,1.09-7.93-.24a11.47,11.47,0,0,0-4.35-1.1c.48.72,1,1.41,1.49,2,9.72,12.31,22.07,3.28,22.07,3.28S200.49,548.77,189,537.57ZM173.6,549.18c-1.23.88-4.85,0-6.68-.59s-1.75-2-.69-2.4l0,0C167.77,545.65,175.2,548,173.6,549.18Zm8.57-10.9,0,0c.69-.88,1.84-.83,2.24.59.54,1.86.24,3-1.25,3.22C182.25,542.21,181.21,539.54,182.17,538.28Z" fill="#ffc931"></path>
    <path d="M175.12,542.79a76.43,76.43,0,0,1,10,10.69,53.64,53.64,0,0,1,5.49,9.74c1.1,2.41,2.15,4.84,3.22,7.27.15.32.63,0,.48-.29-1.76-4-3.41-8-5.47-11.87a46.78,46.78,0,0,0-6.8-9.44c-2.08-2.27-4.31-4.41-6.58-6.49-.26-.24-.66.15-.39.39Z" fill="#808080" data-secondary="true"></path>
    <path d="M202.27,563.47s12.29,9.11,22.09-3.12c.52-.64,1-1.33,1.51-2.05a11.42,11.42,0,0,0-4.35,1.07c-3.06,1.31-6.86,2.51-7.94.19s5.8-4,10.45-4a8.91,8.91,0,0,0,3.95-.75,35.8,35.8,0,0,0,4.44-14c-3.85,2.28-9.36,5.06-10,2.78-.74-2.46,5.59-6.07,9.54-8.05a8.06,8.06,0,0,0-2.73-4.14A9.06,9.06,0,0,0,223,529.5a15,15,0,0,0-4.25.87c0,3.09-.15,8.94-2,9.5-1.65.52-2.79-4-3.35-7a54.35,54.35,0,0,0-7.44,5.45,15.11,15.11,0,0,0-.81,7.94c.95,5.23-1.62,6.92-2.79,5.13-1.68-2.6,1.44-8.66,1.31-11C192.07,551.52,202.27,563.47,202.27,563.47Zm24-14.31,0,0c1.05.4,1.14,1.8-.71,2.4s-5.46,1.43-6.69.54C217.36,551,224.81,548.62,226.31,549.16Zm-16.89-4.24c-1.49-.26-1.78-1.37-1.24-3.23.42-1.41,1.57-1.46,2.26-.57l0,0C211.42,542.43,210.36,545.08,209.42,544.92Z" fill="#ffc931"></path>
    <path d="M217.09,545.32c-7.43,7.45-13.33,16.09-19,24.88-.2.31.28.59.48.29,5.68-8.75,11.55-17.36,19-24.77.25-.26-.15-.65-.4-.4Z" fill="#808080" data-secondary="true"></path>
    <path d="M221.17,570.17c0,.45-10.88.81-24.31.81s-24.31-.36-24.31-.81,10.89-.81,24.31-.81S221.17,569.72,221.17,570.17Z" fill="#747bff"></path>
    <g opacity="0.2">
        <path d="M221.17,570.17c0,.45-10.88.81-24.31.81s-24.31-.36-24.31-.81,10.89-.81,24.31-.81S221.17,569.72,221.17,570.17Z"></path>
    </g>
</svg>