<!--suppress ALL, XmlUnusedNamespaceDeclaration -->


<svg xmlns="http://www.w3.org/2000/svg" xmlns:xlink="http://www.w3.org/1999/xlink" width="500" zoomAndPan="magnify"
     viewBox="0 0 375 374.999991" height="500" preserveAspectRatio="xMidYMid meet" version="1.0">
    <defs>
        <clipPath id="bbf933797f">
            <path d="M 21.539062 24 L 304 24 L 304 307 L 21.539062 307 Z M 21.539062 24 " clipRule="nonzero"/>
        </clipPath>
        <clipPath id="51bcf58e5f">
            <path d="M 231 206 L 353.789062 206 L 353.789062 300 L 231 300 Z M 231 206 " clipRule="nonzero"/>
        </clipPath>
    </defs>
    <path fill="#017efc"
          d="M 107.636719 194.390625 L 73.691406 194.390625 C 69.632812 194.390625 66.304688 191.0625 66.304688 187.003906 L 66.304688 164.609375 C 66.304688 160.570312 69.632812 157.246094 73.691406 157.246094 L 107.636719 157.246094 C 111.675781 157.246094 115.003906 160.570312 115.003906 164.609375 L 115.003906 187.003906 C 115.003906 191.0625 111.675781 194.390625 107.636719 194.390625 "
          fill-opacity="1" fillRule="nonzero"/>
    <path fill="#017efc"
          d="M 179.226562 194.390625 L 145.300781 194.390625 C 141.238281 194.390625 137.914062 191.0625 137.914062 187.003906 L 137.914062 164.609375 C 137.914062 160.570312 141.238281 157.246094 145.300781 157.246094 L 179.226562 157.246094 C 183.285156 157.246094 186.609375 160.570312 186.609375 164.609375 L 186.609375 187.003906 C 186.609375 191.0625 183.285156 194.390625 179.226562 194.390625 "
          fill-opacity="1" fillRule="nonzero"/>
    <path fill="#017efc"
          d="M 258.199219 164.609375 L 258.199219 180.375 C 254.332031 180.957031 250.445312 181.757812 246.558594 182.792969 C 237.144531 185.320312 228.332031 189.226562 220.363281 194.390625 L 216.886719 194.390625 C 212.828125 194.390625 209.523438 191.0625 209.523438 187.003906 L 209.523438 164.609375 C 209.523438 160.570312 212.828125 157.246094 216.886719 157.246094 L 250.835938 157.246094 C 254.894531 157.246094 258.199219 160.570312 258.199219 164.609375 "
          fill-opacity="1" fillRule="nonzero"/>
    <path fill="#017efc"
          d="M 107.636719 258.570312 L 73.691406 258.570312 C 69.632812 258.570312 66.304688 255.242188 66.304688 251.207031 L 66.304688 228.8125 C 66.304688 224.75 69.632812 221.425781 73.691406 221.425781 L 107.636719 221.425781 C 111.675781 221.425781 115.003906 224.75 115.003906 228.8125 L 115.003906 251.207031 C 115.003906 255.242188 111.675781 258.570312 107.636719 258.570312 "
          fill-opacity="1" fillRule="nonzero"/>
    <path fill="#017efc"
          d="M 186.609375 228.8125 L 186.609375 234.339844 C 183.285156 242.050781 181.039062 250.191406 179.917969 258.527344 C 179.699219 258.546875 179.464844 258.570312 179.226562 258.570312 L 145.300781 258.570312 C 141.238281 258.570312 137.914062 255.242188 137.914062 251.207031 L 137.914062 228.8125 C 137.914062 224.75 141.238281 221.425781 145.300781 221.425781 L 179.226562 221.425781 C 183.285156 221.425781 186.609375 224.75 186.609375 228.8125 "
          fill-opacity="1" fillRule="nonzero"/>
    <path fill="#017efc"
          d="M 217.234375 67.042969 C 217.234375 67.605469 217.234375 68.167969 217.253906 68.730469 C 217.277344 71.859375 218.722656 74.363281 221.140625 76.265625 C 224.554688 78.941406 228.355469 79.375 232.261719 77.648438 C 236.796875 75.617188 238.589844 71.730469 238.613281 66.980469 C 238.65625 56.785156 238.675781 46.617188 238.589844 36.421875 C 238.589844 34.824219 238.289062 33.117188 237.726562 31.605469 C 236.105469 27.074219 231.226562 24.136719 226.667969 24.761719 C 221.421875 25.472656 217.46875 29.425781 217.277344 34.628906 C 217.144531 38.519531 217.167969 42.40625 217.210938 46.3125 C 189.246094 46.398438 126.125 46.507812 125 46.617188 C 125 47.890625 125 48.882812 125 49.875 C 124.980469 55.597656 125.066406 61.320312 124.9375 67.042969 C 152.253906 67.042969 188.878906 67.042969 217.234375 67.042969 "
          fill-opacity="1" fillRule="nonzero"/>
    <g clip-path="url(#bbf933797f)">
        <path fill="#017efc"
              d="M 303.070312 185.058594 C 303.070312 149.945312 303.050781 114.855469 303.050781 79.742188 C 303.050781 78.921875 303.027344 78.101562 302.984375 77.257812 C 302.207031 62.359375 291.691406 49.917969 277.070312 47.175781 C 272.34375 46.292969 267.417969 46.507812 262.558594 46.378906 C 258.199219 46.269531 259.320312 46.355469 254.589844 46.355469 L 254.589844 49.640625 C 254.589844 55.320312 254.636719 60.996094 254.570312 66.699219 C 254.570312 66.808594 254.570312 66.9375 254.570312 67.042969 L 268.996094 67.042969 C 277.136719 67.042969 281.585938 71.515625 281.585938 79.65625 L 281.585938 100.582031 L 42.917969 100.582031 L 42.917969 79.675781 C 42.917969 71.515625 47.390625 67.042969 55.53125 67.042969 L 85.9375 67.042969 C 85.980469 68.511719 86.171875 70.023438 86.625 71.40625 C 88.160156 76.289062 92.890625 79.117188 98.265625 78.488281 C 103.039062 77.972656 107.054688 73.890625 107.25 68.878906 C 107.445312 63.113281 107.292969 57.347656 107.292969 51.5625 C 107.292969 45.882812 107.421875 40.179688 107.25 34.523438 C 107.097656 29.988281 103.96875 26.382812 99.625 25.171875 C 92.347656 23.121094 85.980469 28.347656 85.914062 36.550781 C 85.890625 39.8125 85.890625 43.097656 85.871094 46.355469 C 81.269531 46.355469 67.859375 46.292969 64.535156 46.355469 C 59.136719 46.484375 53.628906 46.074219 48.359375 46.984375 C 32.121094 49.769531 21.476562 63.050781 21.476562 79.914062 C 21.453125 144.179688 21.433594 208.449219 21.476562 272.714844 C 21.476562 292.085938 35.597656 306.230469 54.945312 306.230469 C 98.632812 306.25 142.296875 306.25 185.984375 306.25 C 183.480469 300.203125 181.644531 293.898438 180.519531 287.421875 C 180.347656 286.535156 180.21875 285.671875 180.089844 284.785156 C 138.5625 284.785156 97.035156 284.785156 55.53125 284.785156 C 47.390625 284.785156 42.917969 280.316406 42.917969 272.175781 C 42.917969 240.085938 42.917969 207.996094 42.917969 175.925781 C 42.917969 156.664062 42.917969 137.445312 42.917969 118.179688 L 281.585938 118.179688 C 281.605469 137.421875 281.605469 156.664062 281.605469 175.925781 L 281.605469 179.835938 C 289.015625 180.632812 296.160156 182.382812 303.070312 185.058594 "
              fill-opacity="1" fillRule="nonzero"/>
    </g>
    <path fill="#017efc"
          d="M 345.441406 244.164062 L 343.671875 246.21875 C 340.28125 250.0625 336.976562 253.925781 333.542969 257.726562 C 333.476562 257.769531 333.476562 257.769531 333.433594 257.835938 C 334.492188 262.390625 335.054688 267.207031 335.054688 272.085938 C 335.054688 307.804688 305.964844 336.894531 270.226562 336.894531 C 234.507812 336.894531 205.421875 307.804688 205.421875 272.085938 C 205.421875 236.304688 234.507812 207.28125 270.226562 207.28125 C 283.140625 207.28125 295.253906 211.082031 305.359375 217.667969 C 309.703125 214.386719 314.105469 211.234375 318.597656 208.125 C 305.101562 197.910156 288.386719 191.839844 270.226562 191.839844 C 225.976562 191.839844 190 227.839844 190 272.085938 C 190 316.3125 225.976562 352.3125 270.226562 352.3125 C 314.472656 352.3125 350.472656 316.3125 350.472656 272.085938 C 350.472656 262.285156 348.703125 252.847656 345.441406 244.164062 "
          fill-opacity="1" fillRule="nonzero"/>
    <g clip-path="url(#51bcf58e5f)">
        <path fill="#017efc"
              d="M 353.324219 209.742188 C 353.171875 207.886719 351.789062 206.65625 348.398438 206.65625 C 348.164062 206.65625 347.902344 206.675781 347.664062 206.699219 C 346.476562 206.851562 345.460938 207.324219 344.707031 207.714844 L 343.757812 208.230469 C 342.894531 208.683594 342.007812 209.160156 341.121094 209.613281 C 338.960938 210.78125 336.4375 212.183594 333.929688 213.847656 C 316.871094 225.164062 300.632812 238.03125 284.933594 250.472656 L 283.960938 251.226562 C 280.179688 254.207031 276.359375 257.316406 272.644531 260.296875 C 271.585938 261.160156 270.527344 262.003906 269.46875 262.867188 C 267.808594 261.484375 266.144531 260.082031 264.480469 258.699219 C 259.667969 254.660156 254.679688 250.472656 249.625 246.519531 C 246.515625 244.101562 242.910156 242.4375 240.144531 241.273438 C 237.402344 240.105469 234.746094 240.625 233.210938 242.523438 C 232.066406 243.949219 231.699219 245.957031 232.199219 248.183594 C 232.585938 250.0625 233.125 252.265625 234.011719 254.402344 C 238.933594 266.410156 245.800781 278.5 255.605469 292.496094 C 258.714844 296.921875 263.445312 299.449219 268.585938 299.449219 C 272.839844 299.449219 276.964844 297.699219 280.203125 294.523438 C 283.269531 291.5 286.445312 288.304688 289.617188 285.023438 C 301.128906 273.144531 312.574219 261.203125 323.542969 248.832031 C 329.417969 242.222656 335.207031 235.527344 341.058594 228.875 C 342.613281 227.128906 353.734375 215.421875 353.324219 209.742188 "
              fill-opacity="1" fillRule="nonzero"/>
    </g>
</svg>