<svg xmlns="http://www.w3.org/2000/svg" xmlns:xlink="http://www.w3.org/1999/xlink" width="500" zoomAndPan="magnify" viewBox="0 0 375 374.999991" height="500" preserveAspectRatio="xMidYMid meet" version="1.0"><defs><clipPath id="765ad12f01"><path d="M 17.222656 17.222656 L 357.777344 17.222656 L 357.777344 357.777344 L 17.222656 357.777344 Z M 17.222656 17.222656 " clip-rule="nonzero"/></clipPath><clipPath id="7c64adfc5c"><path d="M 187.5 17.222656 C 93.457031 17.222656 17.222656 93.457031 17.222656 187.5 C 17.222656 281.542969 93.457031 357.777344 187.5 357.777344 C 281.542969 357.777344 357.777344 281.542969 357.777344 187.5 C 357.777344 93.457031 281.542969 17.222656 187.5 17.222656 " clip-rule="nonzero"/></clipPath><clipPath id="379006129b"><path d="M 21.539062 29 L 304 29 L 304 311 L 21.539062 311 Z M 21.539062 29 " clip-rule="nonzero"/></clipPath><clipPath id="102246b688"><path d="M 231 210 L 353.789062 210 L 353.789062 304 L 231 304 Z M 231 210 " clip-rule="nonzero"/></clipPath></defs><g clip-path="url(#765ad12f01)"><g clip-path="url(#7c64adfc5c)"><path fill="#ffffff" d="M 17.222656 17.222656 L 357.777344 17.222656 L 357.777344 357.777344 L 17.222656 357.777344 Z M 17.222656 17.222656 " fill-opacity="1" fill-rule="nonzero"/></g></g><path fill="#017efc" d="M 107.636719 198.707031 L 73.691406 198.707031 C 69.632812 198.707031 66.304688 195.378906 66.304688 191.320312 L 66.304688 168.925781 C 66.304688 164.886719 69.632812 161.5625 73.691406 161.5625 L 107.636719 161.5625 C 111.675781 161.5625 115.003906 164.886719 115.003906 168.925781 L 115.003906 191.320312 C 115.003906 195.378906 111.675781 198.707031 107.636719 198.707031 " fill-opacity="1" fill-rule="nonzero"/><path fill="#017efc" d="M 179.226562 198.707031 L 145.300781 198.707031 C 141.238281 198.707031 137.914062 195.378906 137.914062 191.320312 L 137.914062 168.925781 C 137.914062 164.886719 141.238281 161.5625 145.300781 161.5625 L 179.226562 161.5625 C 183.285156 161.5625 186.609375 164.886719 186.609375 168.925781 L 186.609375 191.320312 C 186.609375 195.378906 183.285156 198.707031 179.226562 198.707031 " fill-opacity="1" fill-rule="nonzero"/><path fill="#017efc" d="M 258.199219 168.925781 L 258.199219 184.691406 C 254.332031 185.273438 250.445312 186.074219 246.558594 187.109375 C 237.144531 189.636719 228.332031 193.542969 220.363281 198.707031 L 216.886719 198.707031 C 212.828125 198.707031 209.523438 195.378906 209.523438 191.320312 L 209.523438 168.925781 C 209.523438 164.886719 212.828125 161.5625 216.886719 161.5625 L 250.835938 161.5625 C 254.894531 161.5625 258.199219 164.886719 258.199219 168.925781 " fill-opacity="1" fill-rule="nonzero"/><path fill="#017efc" d="M 107.636719 262.886719 L 73.691406 262.886719 C 69.632812 262.886719 66.304688 259.558594 66.304688 255.523438 L 66.304688 233.128906 C 66.304688 229.070312 69.632812 225.742188 73.691406 225.742188 L 107.636719 225.742188 C 111.675781 225.742188 115.003906 229.070312 115.003906 233.128906 L 115.003906 255.523438 C 115.003906 259.558594 111.675781 262.886719 107.636719 262.886719 " fill-opacity="1" fill-rule="nonzero"/><path fill="#017efc" d="M 186.609375 233.128906 L 186.609375 238.65625 C 183.285156 246.367188 181.039062 254.507812 179.917969 262.84375 C 179.699219 262.863281 179.464844 262.886719 179.226562 262.886719 L 145.300781 262.886719 C 141.238281 262.886719 137.914062 259.558594 137.914062 255.523438 L 137.914062 233.128906 C 137.914062 229.070312 141.238281 225.742188 145.300781 225.742188 L 179.226562 225.742188 C 183.285156 225.742188 186.609375 229.070312 186.609375 233.128906 " fill-opacity="1" fill-rule="nonzero"/><path fill="#017efc" d="M 217.234375 71.359375 C 217.234375 71.921875 217.234375 72.484375 217.253906 73.046875 C 217.277344 76.175781 218.722656 78.683594 221.140625 80.582031 C 224.554688 83.261719 228.355469 83.691406 232.261719 81.964844 C 236.796875 79.933594 238.589844 76.046875 238.613281 71.296875 C 238.65625 61.101562 238.675781 50.933594 238.589844 40.738281 C 238.589844 39.140625 238.289062 37.433594 237.726562 35.925781 C 236.105469 31.390625 231.226562 28.453125 226.667969 29.078125 C 221.421875 29.789062 217.46875 33.742188 217.277344 38.945312 C 217.144531 42.835938 217.167969 46.722656 217.210938 50.628906 C 189.246094 50.714844 126.125 50.824219 125 50.933594 C 125 52.207031 125 53.199219 125 54.191406 C 124.980469 59.914062 125.066406 65.636719 124.9375 71.359375 C 152.253906 71.359375 188.878906 71.359375 217.234375 71.359375 " fill-opacity="1" fill-rule="nonzero"/><g clip-path="url(#379006129b)"><path fill="#017efc" d="M 303.070312 189.378906 C 303.070312 154.265625 303.050781 119.171875 303.050781 84.058594 C 303.050781 83.238281 303.027344 82.417969 302.984375 81.574219 C 302.207031 66.675781 291.691406 54.234375 277.070312 51.492188 C 272.34375 50.609375 267.417969 50.824219 262.558594 50.695312 C 258.199219 50.585938 259.320312 50.671875 254.589844 50.671875 L 254.589844 53.957031 C 254.589844 59.636719 254.636719 65.316406 254.570312 71.015625 C 254.570312 71.125 254.570312 71.253906 254.570312 71.359375 L 268.996094 71.359375 C 277.136719 71.359375 281.585938 75.832031 281.585938 83.972656 L 281.585938 104.898438 L 42.917969 104.898438 L 42.917969 83.992188 C 42.917969 75.832031 47.390625 71.359375 55.53125 71.359375 L 85.9375 71.359375 C 85.980469 72.828125 86.171875 74.339844 86.625 75.722656 C 88.160156 80.605469 92.890625 83.433594 98.265625 82.804688 C 103.039062 82.289062 107.054688 78.207031 107.25 73.195312 C 107.445312 67.429688 107.292969 61.664062 107.292969 55.878906 C 107.292969 50.199219 107.421875 44.496094 107.25 38.839844 C 107.097656 34.304688 103.96875 30.699219 99.625 29.488281 C 92.347656 27.4375 85.980469 32.664062 85.914062 40.867188 C 85.890625 44.128906 85.890625 47.414062 85.871094 50.671875 C 81.269531 50.671875 67.859375 50.609375 64.535156 50.671875 C 59.136719 50.800781 53.628906 50.390625 48.359375 51.300781 C 32.121094 54.085938 21.476562 67.367188 21.476562 84.230469 C 21.453125 148.496094 21.433594 212.765625 21.476562 277.03125 C 21.476562 296.402344 35.597656 310.546875 54.945312 310.546875 C 98.632812 310.566406 142.296875 310.566406 185.984375 310.566406 C 183.480469 304.519531 181.644531 298.214844 180.519531 291.738281 C 180.347656 290.851562 180.21875 289.988281 180.089844 289.101562 C 138.5625 289.101562 97.035156 289.101562 55.53125 289.101562 C 47.390625 289.101562 42.917969 284.632812 42.917969 276.492188 C 42.917969 244.402344 42.917969 212.3125 42.917969 180.242188 C 42.917969 160.980469 42.917969 141.761719 42.917969 122.496094 L 281.585938 122.496094 C 281.605469 141.738281 281.605469 160.980469 281.605469 180.242188 L 281.605469 184.152344 C 289.015625 184.949219 296.160156 186.699219 303.070312 189.378906 " fill-opacity="1" fill-rule="nonzero"/></g><path fill="#017efc" d="M 345.441406 248.480469 L 343.671875 250.535156 C 340.28125 254.378906 336.976562 258.242188 333.542969 262.042969 C 333.476562 262.085938 333.476562 262.085938 333.433594 262.152344 C 334.492188 266.707031 335.054688 271.523438 335.054688 276.40625 C 335.054688 312.121094 305.964844 341.210938 270.226562 341.210938 C 234.507812 341.210938 205.421875 312.121094 205.421875 276.40625 C 205.421875 240.621094 234.507812 211.597656 270.226562 211.597656 C 283.140625 211.597656 295.253906 215.398438 305.359375 221.984375 C 309.703125 218.703125 314.105469 215.550781 318.597656 212.441406 C 305.101562 202.226562 288.386719 196.15625 270.226562 196.15625 C 225.976562 196.15625 190 232.15625 190 276.40625 C 190 320.628906 225.976562 356.628906 270.226562 356.628906 C 314.472656 356.628906 350.472656 320.628906 350.472656 276.40625 C 350.472656 266.601562 348.703125 257.164062 345.441406 248.480469 " fill-opacity="1" fill-rule="nonzero"/><g clip-path="url(#102246b688)"><path fill="#017efc" d="M 353.324219 214.058594 C 353.171875 212.203125 351.789062 210.972656 348.398438 210.972656 C 348.164062 210.972656 347.902344 210.992188 347.664062 211.015625 C 346.476562 211.167969 345.460938 211.640625 344.707031 212.03125 L 343.757812 212.546875 C 342.894531 213 342.007812 213.476562 341.121094 213.929688 C 338.960938 215.097656 336.4375 216.5 333.929688 218.164062 C 316.871094 229.480469 300.632812 242.347656 284.933594 254.789062 L 283.960938 255.542969 C 280.179688 258.523438 276.359375 261.632812 272.644531 264.613281 C 271.585938 265.476562 270.527344 266.320312 269.46875 267.183594 C 267.808594 265.800781 266.144531 264.398438 264.480469 263.015625 C 259.667969 258.976562 254.679688 254.789062 249.625 250.835938 C 246.515625 248.417969 242.910156 246.753906 240.144531 245.589844 C 237.402344 244.421875 234.746094 244.941406 233.210938 246.839844 C 232.066406 248.265625 231.699219 250.273438 232.199219 252.5 C 232.585938 254.378906 233.125 256.582031 234.011719 258.71875 C 238.933594 270.726562 245.800781 282.816406 255.605469 296.8125 C 258.714844 301.238281 263.445312 303.765625 268.585938 303.765625 C 272.839844 303.765625 276.964844 302.015625 280.203125 298.839844 C 283.269531 295.816406 286.445312 292.621094 289.617188 289.339844 C 301.128906 277.460938 312.574219 265.519531 323.542969 253.148438 C 329.417969 246.539062 335.207031 239.84375 341.058594 233.191406 C 342.613281 231.445312 353.734375 219.738281 353.324219 214.058594 " fill-opacity="1" fill-rule="nonzero"/></g></svg>